<svg width="65" height="188" viewBox="0 0 65 188" xmlns="http://www.w3.org/2000/svg">
<g clip-path="url(#clip0_104_25)">
<path d="M34 57.7998L31.4 58.0998C29.5 76.7998 31.4 160.2 36.9 178.2L39.5 177.9C33.9 159.9 32 76.5998 34 57.7998Z" />
<path d="M34 57.7998L31.4 58.0998C29.5 76.7998 31.4 160.2 36.9 178.2L39.5 177.9C33.9 159.9 32 76.5998 34 57.7998Z" />
<path d="M35.4999 47V58.1C35.4999 58.7 35.3 59.2 35.2 59.2H30.4999C30.3999 59.1 30.2 58.7 30.2 58.2C30.2 58.2 30.2 58.2 30.2 58.1V47C30.2 46.1 31.2 46.2 31.4 46.2C31.7 46.2 31.9999 46.1 32.2999 46.1H32.4C32.7 46.1 32.9999 46.1 33.2999 46C33.6999 46 34.1998 46 34.5998 46C34.7998 46 35.4999 46 35.4999 47Z" />
<path d="M33.7 46C33.6 46 33.4999 46 33.2999 46C32.9999 46 32.7 46 32.4 46.1H32.2999C31.9999 46.1 31.7 46.2 31.4 46.2C31.2 46.2 30.2 46.1 30.2 47V58V58.1C30.2 58.6 30.2999 59 30.4999 59.1H35.2C35.4 59.1 35.4999 58.6 35.4999 58V47C35.4999 46 34.7998 46.1 34.5998 46C34.2998 46 34 46 33.7 46Z" />
<path d="M35.0999 49.3002C35.0999 49.8002 35.0999 50.2002 34.9999 50.7002C34.8999 51.2002 34.7999 51.8002 34.3999 52.2002C34.1999 52.3002 33.9999 52.4002 33.6999 52.5002C31.9999 53.3002 32.1999 55.7002 32.3999 57.2002C32.3999 57.5002 32.4999 57.7002 32.4999 57.9002C32.4999 58.3002 32.4999 58.7002 32.4999 59.1002H30.3999C30.2999 59.0002 30.0999 58.6002 30.0999 58.1002C30.0999 58.1002 30.0999 58.1002 30.0999 58.0002V48.5002C30.0999 48.0002 30.0999 47.5002 30.0999 46.9002C30.0999 46.0002 31.0999 46.1002 31.2999 46.1002C31.8999 46.0002 32.3999 45.9002 32.8999 45.7002C33.4999 45.5002 33.9999 45.5002 34.4999 46.1002C34.8999 46.6002 34.9999 47.2002 34.9999 47.8002C35.0999 48.3002 35.1999 48.8002 35.0999 49.3002Z" />
<path d="M33.6998 45.6001C33.4998 45.6001 33.2998 45.6001 33.0998 45.7001C32.4998 45.9001 32.0998 46.0001 31.4998 46.1001C31.2998 46.1001 30.2998 46.0001 30.2998 46.9001C30.2998 47.4001 30.2998 47.9001 30.2998 48.5001V58.0001V58.1001C30.2998 58.6001 30.3998 59.0001 30.5998 59.1001H32.6998C32.6998 58.7001 32.6998 58.3001 32.6998 57.9001C32.6998 57.6001 32.5998 57.4001 32.5998 57.2001C32.3998 55.7001 32.1998 53.3001 33.8998 52.5001C34.0998 52.4001 34.3998 52.3001 34.5998 52.2001C34.9998 51.9001 35.1998 51.3001 35.1998 50.7001C35.2998 50.2001 35.2998 49.8001 35.2998 49.3001C35.2998 48.8001 35.2998 48.3001 35.2998 47.8001C35.2998 47.2001 35.1998 46.6001 34.7998 46.1001C34.2998 45.8001 33.9998 45.6001 33.6998 45.6001Z" />
<path d="M36.4999 41.0002V50.3002C36.4999 50.8002 36.2999 51.2002 35.9999 51.2002H29.4999C29.2999 51.1002 29.2 50.7002 29.2 50.3002C29.2 50.3002 29.2 50.3002 29.2 50.2002V41.0002C29.2 40.3002 30.6 40.3002 30.9 40.3002C31.3 40.3002 31.6998 40.2002 32.0998 40.2002C32.1998 40.2002 32.1999 40.2002 32.2999 40.2002C32.6999 40.2002 33.0998 40.2002 33.5998 40.2002C34.1998 40.2002 34.8 40.2002 35.4 40.2002C35.6 40.2002 36.4999 40.2002 36.4999 41.0002Z" />
<path d="M33.9999 40.2002C33.7999 40.2002 33.6999 40.2002 33.4999 40.2002C33.0999 40.2002 32.6999 40.2002 32.1999 40.2002C32.0999 40.2002 32.0999 40.2002 31.9999 40.2002C31.5999 40.2002 31.1999 40.3002 30.7999 40.3002C30.4999 40.3002 29.0999 40.2002 29.0999 41.0002V50.2002V50.3002C29.0999 50.7002 29.1999 51.1002 29.3999 51.2002H35.8999C36.1999 51.2002 36.3999 50.8002 36.3999 50.3002V41.0002C36.3999 40.2002 35.3999 40.2002 35.1999 40.2002C34.8999 40.2002 34.3999 40.2002 33.9999 40.2002Z" />
<path d="M33.4998 42.9001C33.3998 43.6001 32.8998 43.9001 32.5998 44.5001C32.3998 45.0001 32.2998 45.7001 32.2998 46.4001C32.2998 47.0001 32.1998 47.6001 32.1998 48.2001C32.1998 48.7001 32.1998 49.2001 32.2998 49.6001C32.2998 49.8001 32.3998 50.0001 32.4998 50.2001C32.5998 50.5001 32.5998 50.9001 32.4998 51.2001H29.5998C29.3998 51.1001 29.2998 50.7001 29.2998 50.3001C29.2998 50.3001 29.2998 50.3001 29.2998 50.2001V42.2001C29.2998 41.8001 29.2998 41.3001 29.2998 40.9001C29.2998 40.2001 30.6998 40.2001 30.9998 40.2001C31.3998 40.2001 31.7998 40.2001 32.1998 40.1001C32.2998 40.1001 32.2998 40.1001 32.3998 40.1001C32.7998 40.1001 33.1998 40.1001 33.6998 40.1001C33.6998 40.2001 33.6998 40.3001 33.6998 40.4001C33.6998 41.0001 33.6998 41.6001 33.6998 42.2001C33.4998 42.5001 33.4998 42.7001 33.4998 42.9001Z" />
<path d="M33.4999 40.2002C33.0999 40.2002 32.6999 40.2002 32.1999 40.2002C32.0999 40.2002 32.0999 40.2002 31.9999 40.2002C31.5999 40.3002 31.1999 40.3002 30.7999 40.3002C30.4999 40.3002 29.0999 40.2002 29.0999 41.0002C29.0999 41.4002 29.0999 41.9002 29.0999 42.3002V50.3002V50.4002C29.0999 50.8002 29.1999 51.2002 29.3999 51.3002H32.2999C32.3999 51.0002 32.3999 50.6002 32.2999 50.3002C32.2999 50.1002 32.1999 49.9002 32.0999 49.7002C31.9999 49.3002 31.9999 48.8002 31.9999 48.3002C31.9999 47.7002 31.9999 47.1002 32.0999 46.5002C32.0999 45.8002 32.1999 45.1002 32.3999 44.6002C32.6999 44.0002 33.0999 43.8002 33.2999 43.0002C33.2999 42.8002 33.2999 42.6002 33.2999 42.4002C33.2999 41.8002 33.2999 41.2002 33.2999 40.6002C33.4999 40.4002 33.4999 40.3002 33.4999 40.2002Z" />
<path d="M35.3998 10.2002V22.8002C35.3998 23.9002 34.5998 23.9002 34.3998 23.9002C33.4998 24.0002 33.3998 24.0002 32.4998 23.9002C32.0998 23.9002 31.6998 23.8002 31.2998 23.8002C31.0998 23.8002 29.8998 23.9002 29.7998 22.8002V10.3002C29.7998 10.2002 29.7998 10.2002 29.7998 10.2002C29.7998 9.60021 29.8998 9.1002 30.0998 9.0002H34.8998C35.1998 8.9002 35.3998 9.50021 35.3998 10.2002Z" />
<path d="M32.4 23.9002C32 23.9002 31.6 23.8002 31.2 23.8002C31 23.8002 29.8 23.9002 29.7 22.8002C29.7 22.2002 29.7 21.6002 29.7 21.0002V10.3002C29.7 8.0002 30.5 9.60022 30.7 10.7002C30.9 11.7002 30.6999 12.8002 30.7999 13.8002C30.8999 15.2002 31.4 16.6002 31.2 18.1002C31.1 18.8002 30.8 19.5002 30.9 20.2002C31.1 21.5002 32.4 22.4002 32.4 23.9002Z" />
<path d="M37.7 5.49981V12.2998C37.7 12.8998 36.3 12.8998 35.9 12.8998C34.4 12.8998 34.1 12.8998 32.6 12.8998C31.9 12.8998 31.2 12.8998 30.5 12.7998C30.1 12.7998 28 12.7998 28 12.2998V5.49981C28 5.19981 28.2 4.8998 28.5 4.7998C28.5 4.7998 28.5 4.7998 28.6 4.7998C28.6 4.7998 28.6 4.7998 28.7 4.7998H37.1C37.4 4.7998 37.7 5.09981 37.7 5.49981Z" />
<path d="M32.6 12.8998C31.9 12.8998 31.2 12.8998 30.5 12.7998C30.1 12.7998 28 12.7998 28 12.2998C28 11.9998 28 11.5998 28 11.2998V5.49976C28 4.29976 29.4 5.09978 29.7 5.69978C29.9 6.09978 30 8.89976 30.1 9.39976C30.2 9.69976 30.2 10.1998 30.4 10.3998C30.7 10.6998 31.2 10.5998 31.5 10.7998C31.9 11.0998 32.1 11.4998 32.3 11.8998C32.4 12.2998 32.5 12.5998 32.6 12.8998Z" />
<path d="M41.1998 23.3999V30.1999C41.1998 31.0999 38.9998 31.0999 38.3998 31.0999C36.0998 31.1999 33.6998 31.0999 31.3998 31.0999C30.2998 31.0999 29.2998 30.9999 28.1998 30.9999C27.5998 30.9999 24.3998 31.0999 24.2998 30.1999V23.4999V23.3999C24.2998 22.8999 24.5998 22.4999 25.0998 22.3999H25.1998C25.1998 22.3999 25.1998 22.3999 25.2998 22.3999H25.3998H40.0998C40.6998 22.3999 41.1998 22.8999 41.1998 23.3999Z" />
<path d="M31.3998 31.1998C30.2998 31.1998 29.2998 31.0998 28.1998 31.0998C27.5998 31.0998 24.3998 31.1998 24.2998 30.2998C24.2998 29.7998 24.2998 29.2998 24.2998 28.7998V23.5998C24.2998 22.6998 24.8998 22.4998 25.6998 22.6998C26.2998 22.8998 26.9998 22.7998 27.6998 22.8998C27.8998 22.8998 28.0998 22.8998 28.1998 23.0998C28.2998 23.1998 28.2998 23.2998 28.2998 23.3998C28.2998 23.6998 27.9998 23.9998 27.7998 24.2998C27.2998 24.9998 27.1998 25.8998 27.4998 26.6998C27.5998 26.9998 27.7998 27.3998 28.0998 27.5998C28.4998 27.7998 28.9998 27.6998 29.3998 27.8998C30.0998 28.1998 30.6998 28.9998 30.9998 29.6998C31.2998 30.0998 31.3998 30.5998 31.3998 31.1998Z" />
<g opacity="0.7">
<path d="M30.7999 180.7C30.0999 180.7 29.3999 180.7 28.7999 180.7H27.9999C27.2999 180.7 26.4999 180.7 25.7999 180.6L23.2999 180.5C22.7999 180.5 22.4 180.5 21.9 180.4C21.5 180.4 20.2 180.3 20.2 180.3C18.3 180.2 16.7 180.1 15.2 179.9H14.7999C14.1999 179.8 13.5999 179.8 13.0999 179.7H12.7999C12.3999 179.6 12 179.6 11.7 179.5L10.7999 179.3L10.2999 179.2L10.0999 179.1H9.99994L9.39996 178.8C9.29996 178.8 9.19991 178.7 9.09991 178.7L8.89996 178.6C8.69996 178.5 8.49996 178.4 8.39996 178.2C8.29996 178.1 8.19995 178 8.19995 178V61.0997L9.59991 61.8997H9.89996C9.99996 61.8997 10.1 61.9997 10.2 61.9997C11.7 62.4997 13.1 62.5997 14.2 62.5997H14.5999C16.7999 62.5997 18.9 62.3997 20.7 62.1997C21.1 62.1997 21.4999 62.0997 21.9999 61.9997C22.5999 61.8997 23.1999 61.7997 23.5999 61.7997C23.6999 61.7997 23.8999 61.8997 23.9999 61.8997C24.7999 62.1997 25.9 62.4997 27.2 62.6997C27.6 62.6997 27.9999 62.7997 28.4999 62.7997C29.5999 62.7997 30.6 62.5997 31.4 62.4997L38.5999 61.1997C39.1999 61.0997 39.8999 60.9997 40.2999 60.9997C40.3999 60.9997 40.6 61.0997 40.7 61.1997C41.2 61.3997 41.9 61.6997 42.7 61.8997C43.7 62.1997 44.7999 62.2997 45.9999 62.2997C47.1999 62.2997 48.3 62.1997 49.2 62.0997C49.4 62.0997 49.7 61.9997 49.9 61.9997C50 61.9997 50.1999 61.9997 50.2999 61.9997C50.7999 61.9997 51.5999 61.8997 52.4999 61.7997C52.4999 61.7997 52.8999 61.6997 53.0999 61.6997C53.8999 61.4997 54.6999 61.1997 55.2999 60.9997C55.4999 60.8997 55.9 60.7997 55.9 60.7997L57.7 60.1997V176.2H55.9999V179.3L55.9 179.4L55.5999 179.5L55.2999 179.6C54.9999 179.7 54.6 179.8 54.2 179.8L53.9 179.9C53.6 179.9 52.9 180 52.9 180C52.1 180.1 51.2 180.2 50.2 180.3L49.4999 180.4C49.0999 180.4 47.7999 180.5 47.7999 180.5L46.0999 180.6L44.0999 180.7L41.7 180.8H41.4999H41.2999C40.9999 180.8 40.0999 180.8 40.0999 180.8H39.9H39.7L36.4999 180.9H33.9H32.9L30.7999 180.7Z" />
<path d="M39.4 67.4998C39.8 67.6998 40.3 67.7998 40.9 67.8998C42.5 68.2998 44.0999 68.4998 45.7999 68.4998C45.8999 68.4998 45.8999 68.4998 45.9999 68.4998V70.1998L50.9 68.6998V169.1H49.2999V169.3H49.0999V169.5H48.9V173.4H48.4C48 173.4 47.6 173.5 47.2 173.5H47.0999H46.7999C46.4999 173.5 46.2999 173.5 45.9999 173.6C45.6999 173.6 45.5 173.6 45.2 173.7L44.0999 173.8C43.9999 173.8 44 173.8 43.9 173.8C43.7 173.8 43.6 173.8 43.4 173.8C43 173.8 42.6999 173.8 42.2999 173.9H42.2H42.0999H41.9H41.5999H40.9999C40.8999 173.9 40.8 173.9 40.7 173.9C40.4 173.9 40 173.9 39.7 173.9H39.4999H39.2H38.2H38.0999H37.9H37.7999H37.7C37.4 173.9 37.2 173.9 36.9 173.9C36.7 173.9 36.4999 173.9 36.2999 173.9H35.9999H35.9C35.4 173.9 34.9 173.9 34.4 173.9H34.2H33.9999H33.4999H33.4H33.2999H32.9C32.6 173.9 32.3 173.9 31.9 173.9H31.4H30.9C30.2 173.9 29.6 173.9 28.9 173.9H28.5999H28.2C27.5 173.9 26.7999 173.9 26.0999 173.8H25.0999C24.7999 173.8 24.5 173.8 24.2 173.8H23.7C23.2 173.8 22.7999 173.8 22.2999 173.7C21.8999 173.7 21.6 173.7 21.2 173.6H21.0999H20.7999H20.7H20.5999C18.8999 173.5 17.3 173.4 15.9 173.2H15.7H15.5999H15.4999C15.2999 173.2 14.9999 173.1 14.7999 173.1V68.9998C17.1999 68.9998 19.4999 68.7998 21.5999 68.4998C22.0999 68.3998 22.4999 68.3998 22.9999 68.2998C23.8999 68.5998 25.0999 68.8998 26.5999 69.0998C27.1999 69.1998 27.8999 69.1998 28.5999 69.1998C30.1999 69.1998 31.6 68.9998 32.7 68.7998L32.9999 68.6998L33.7999 68.4998L34.7999 68.2998L36.4 67.9998L37.9999 67.6998L38.9 67.4998H39.4ZM61.4999 51.7998C61.2999 51.8998 61.1999 51.8998 60.9999 51.9998C60.2999 52.1998 59.6999 52.3998 58.9999 52.5998C58.1999 52.8998 57.2999 53.0998 56.4999 53.3998C55.5999 53.6998 54.6 53.9998 53.7 54.2998C53.6 54.2998 53.4999 54.3998 53.4999 54.3998C52.7999 54.5998 52.1 54.8998 51.4 55.0998C51.3 55.0998 51.2 55.0998 51.2 55.0998C50.5 55.1998 49.7999 55.1998 49.0999 55.2998C48.0999 55.3998 47 55.5998 45.9 55.5998C45.3 55.5998 44.8 55.4998 44.2 55.3998C43.3 55.1998 42.4999 54.6998 41.5999 54.4998C41.0999 54.3998 40.7 54.2998 40.2 54.2998C39.2 54.2998 38.2999 54.4998 37.2999 54.6998C36.6999 54.7998 36.0999 54.8998 35.4999 54.9998C34.3999 55.1998 33.3999 55.3998 32.2999 55.5998C31.6999 55.6998 31 55.7998 30.4 55.9998C30.3 55.9998 30.1999 55.9998 30.0999 56.0998C29.4999 56.1998 28.8999 56.2998 28.2999 56.2998C28.0999 56.2998 27.8999 56.2998 27.7999 56.2998C26.7999 56.1998 25.9999 55.7998 24.9999 55.4998C24.4999 55.3998 23.9999 55.2998 23.4999 55.2998C22.2999 55.2998 21 55.5998 19.9 55.6998C18.1 55.8998 16.2999 56.0998 14.5999 56.0998C14.4999 56.0998 14.4 56.0998 14.2 56.0998C13.5 56.0998 12.8 56.0998 12.2 55.7998C11.9 55.6998 11.5999 55.4998 11.2999 55.3998C10.8999 55.1998 10.6 54.9998 10.2 54.7998C9.49995 54.4998 8.79996 54.2998 7.89996 54.0998C7.09996 53.8998 6.29996 53.8998 5.39996 53.7998C5.19996 53.7998 4.89995 53.7998 4.69995 53.7998C4.19995 53.7998 3.59991 53.7998 3.09991 53.7998C2.89991 53.7998 2.69994 53.7998 2.49994 53.7998C1.99994 54.6998 1.69995 55.6998 1.69995 56.7998C1.69995 58.2998 1.69995 60.1998 1.69995 62.4998V178.1C1.69995 178.5 1.69993 178.8 1.79993 179.2C1.79993 179.3 1.79996 179.4 1.89996 179.5C1.89996 179.6 1.89994 179.7 1.99994 179.8C1.99994 179.9 1.99991 179.9 2.09991 180V180.1C2.09991 180.2 2.09995 180.2 2.19995 180.3C2.29995 180.5 2.29996 180.6 2.39996 180.8C2.39996 180.9 2.49991 181 2.59991 181.1C2.59991 181.2 2.69995 181.2 2.69995 181.3C2.79995 181.4 2.79996 181.5 2.89996 181.6C2.89996 181.7 2.99994 181.7 2.99994 181.8C3.39994 182.3 3.79993 182.8 4.29993 183.3C4.39993 183.3 4.39994 183.4 4.49994 183.4C4.89994 183.7 5.29993 184 5.79993 184.3C5.89993 184.3 5.89994 184.4 5.99994 184.4C6.09994 184.4 6.09995 184.5 6.19995 184.5C6.29995 184.5 6.29996 184.6 6.39996 184.6C6.59996 184.7 6.89991 184.8 7.09991 184.9C7.09991 184.9 7.09995 184.9 7.19995 184.9C7.29995 185 7.49991 185 7.59991 185.1C7.59991 185.1 7.69995 185.1 7.69995 185.2C7.69995 185.2 7.79993 185.2 7.79993 185.3C7.99993 185.4 8.29994 185.5 8.49994 185.6C8.59994 185.6 8.79996 185.7 8.89996 185.7C8.99996 185.7 9.09991 185.7 9.09991 185.8C9.19991 185.8 9.29994 185.9 9.49994 185.9C9.59994 185.9 9.79996 186 9.89996 186C10.1 186 10.2999 186.1 10.4999 186.1C10.5999 186.1 10.6999 186.1 10.7999 186.1C11.1999 186.2 11.6999 186.2 12.0999 186.3C12.1999 186.3 12.3 186.3 12.4 186.3C13 186.4 13.5999 186.5 14.2999 186.5C14.4999 186.5 14.5999 186.5 14.7999 186.5C16.3999 186.7 18.1999 186.8 19.9999 186.9C20.1999 186.9 20.2999 186.9 20.4999 186.9C20.8999 186.9 21.2999 186.9 21.7999 187C22.2999 187 22.7999 187 23.2999 187.1C23.4999 187.1 23.5999 187.1 23.7999 187.1C24.0999 187.1 24.4999 187.1 24.7999 187.1C25.0999 187.1 25.4999 187.1 25.7999 187.1C26.5999 187.1 27.2999 187.1 28.0999 187.2C28.3999 187.2 28.6 187.2 28.9 187.2C29.6 187.2 30.2999 187.2 30.9999 187.2C31.2999 187.2 31.6999 187.2 32.0999 187.2C32.4999 187.2 32.8 187.2 33.2 187.2C33.4 187.2 33.6 187.2 33.7 187.2H34.2C34.4 187.2 34.5 187.2 34.7 187.2C35.2 187.2 35.7999 187.2 36.2999 187.2C36.4999 187.2 36.5999 187.2 36.7999 187.2C36.9999 187.2 37.0999 187.2 37.2999 187.2C37.5999 187.2 37.9 187.2 38.2 187.2H38.2999C38.3999 187.2 38.4999 187.2 38.5999 187.2C38.6999 187.2 38.8 187.2 38.9 187.2C39.2 187.2 39.6 187.2 39.9 187.2C40 187.2 40.0999 187.2 40.0999 187.2C40.1999 187.2 40.1999 187.2 40.2999 187.2C40.6999 187.2 41.1999 187.2 41.5999 187.2C41.5999 187.2 41.6 187.2 41.7 187.2C41.9 187.2 42.2 187.2 42.4 187.2C42.6 187.2 42.8 187.2 42.9 187.2H42.9999C43.3999 187.2 43.6999 187.2 44.0999 187.1H44.2999C44.4999 187.1 44.6999 187.1 44.7999 187.1C45.1999 187.1 45.6 187.1 45.9 187C46 187 46.0999 187 46.0999 187C46.3999 187 46.6999 187 46.9999 186.9C47.2999 186.9 47.6 186.9 47.9 186.8C48 186.8 48.1999 186.8 48.2999 186.8C48.7999 186.8 49.2 186.7 49.7 186.7C49.9 186.7 50.2 186.7 50.4 186.6C51.5 186.5 52.3999 186.4 53.2999 186.3C53.3999 186.3 53.4999 186.3 53.5999 186.3C53.8999 186.3 54.1999 186.2 54.4999 186.2C54.5999 186.2 54.7 186.2 54.9 186.1C55.5 186 56 185.9 56.4 185.8C56.5 185.8 56.5999 185.8 56.5999 185.7C56.6999 185.7 56.6999 185.7 56.7999 185.7C56.8999 185.7 56.9999 185.7 57.0999 185.6H57.2C57.4 185.5 57.5 185.5 57.7 185.4C57.8 185.4 57.8 185.4 57.9 185.3C58.1 185.2 58.2 185.2 58.4 185.1C58.7 185 58.9999 184.8 59.2999 184.7C59.3999 184.7 59.4999 184.6 59.5999 184.6C59.6999 184.6 59.6999 184.5 59.7999 184.5H59.9C59.9 184.5 59.8999 184.5 59.9999 184.5C60.1999 184.4 60.3999 184.3 60.4999 184.2C60.5999 184.2 60.6 184.1 60.7 184.1C60.8 184.1 60.8 184 60.9 184C61 183.9 60.9999 183.9 61.0999 183.8C61.1999 183.7 61.1999 183.7 61.2999 183.6L61.4999 183.4C61.5999 183.3 61.6 183.3 61.7 183.2C61.8 183.1 61.8 183.1 61.9 183C62 182.9 61.9999 182.9 62.0999 182.8C62.1999 182.7 62.1999 182.7 62.2999 182.6C62.3999 182.5 62.3999 182.5 62.4999 182.4C62.4999 182.4 62.4999 182.4 62.4999 182.3C62.5999 182.2 62.6 182.1 62.7 182.1C62.8 182 62.8 181.9 62.9 181.8C63 181.7 63.0999 181.6 63.0999 181.4C63.0999 181.3 63.2 181.3 63.2 181.2C63.2 181.2 63.1999 181.1 63.2999 181.1C63.2999 181 63.4 180.9 63.4 180.9C63.4 180.8 63.3999 180.8 63.4999 180.7C63.4999 180.7 63.4999 180.7 63.4999 180.6V180.5V180.4C63.4999 180.4 63.4999 180.4 63.4999 180.3C63.4999 180.2 63.4999 180.2 63.5999 180.1C63.5999 180 63.6 180 63.7 179.9V179.8C63.7 179.8 63.7 179.8 63.7 179.7V179.6C63.7 179.5 63.7 179.5 63.7 179.4C63.7 179.3 63.6999 179.1 63.7999 179C63.7999 178.9 63.7999 178.7 63.7999 178.6C63.7999 178.5 63.7999 178.4 63.7999 178.3V56.6998C63.8999 54.7998 62.9999 52.9998 61.4999 51.7998Z" />
</g>
<path d="M61.4 51.9002C61.3 51.9002 61.2 52.0002 61 52.0002C60.3 52.2002 59.7 52.4002 59 52.6002C58.2 52.9002 57.3 53.1002 56.5 53.4002C55.6 53.7002 54.6 54.0002 53.7 54.3002C53.6 54.3002 53.5 54.4002 53.5 54.4002C52.8 54.6002 52.1 54.9002 51.4 55.1002C51.3 55.1002 51.2 55.1002 51.2 55.1002C50.5 55.2002 49.8 55.2002 49.1 55.3002C47.5 55.5002 45.8 55.8002 44.2 55.4002C43.3 55.2002 42.5 54.7002 41.6 54.5002C40.2 54.2002 38.7 54.4002 37.3 54.7002C36.7 54.8002 36.1 54.9002 35.5 55.0002C34.4 55.2002 33.4 55.4002 32.3 55.6002C31.7 55.7002 31 55.8002 30.4 56.0002C30.3 56.0002 30.2 56.0002 30.1 56.1002C29.3 56.2002 28.6 56.4002 27.8 56.3002C26.8 56.2002 26 55.8002 25 55.5002C23.4 55.1002 21.5 55.5002 19.8 55.7002C17.9 55.9002 16 56.1002 14.1 56.1002C13.4 56.1002 12.7 56.1002 12.1 55.8002C11.8 55.7002 11.5 55.5002 11.2 55.4002C10.8 55.2002 10.5 55.0002 10.1 54.8002C9.39998 54.5002 8.69999 54.3002 7.79999 54.1002C6.99999 53.9002 6.19999 53.9002 5.29999 53.8002C5.09999 53.8002 4.79998 53.8002 4.59998 53.8002C3.89998 53.8002 3.2 53.8002 2.5 53.8002C4.3 52.3002 5.9 50.8002 8 50.4002C10 50.0002 12.1 50.7002 14.1 51.0002C15.8 51.2002 17.6 51.0002 19.3 50.9002C20.3 50.9002 21.2 50.5002 22.1 50.6002C22.9 50.6002 23.7 51.0002 24.6 51.1002C26.8 51.5002 29.3 51.2002 31.5 50.9002C33.9 50.6002 36.5 50.0002 38.9 50.0002C39.5 50.0002 40.4 50.0002 41 50.2002C41.5 50.3002 41.7 50.6002 42.1 50.7002C43.8 51.4002 45.1 49.8002 46.6 49.4002C48.4 48.9002 50.7 49.1002 52.6 49.3002C53.7 49.4002 54.8 49.6002 55.8 49.9002C56.1 50.0002 56.5 50.1002 56.8 50.2002C57.1 50.3002 59.4 51.1002 61.4 51.9002Z" />
<path d="M49.3 49.1001C48.4 49.1001 47.5001 49.2001 46.7001 49.4001C45.5001 49.7001 44.4 50.9001 43.1 50.9001C42.8 50.9001 42.6 50.9001 42.3 50.7001C41.9 50.5001 41.6001 50.3001 41.2001 50.2001C40.6001 50.1001 39.8 50.1001 39.1 50.0001H39.0001C36.6001 50.0001 34.1 50.6001 31.8 50.9001C30.4 51.1001 28.8 51.3001 27.3 51.3001C26.5 51.3001 25.7001 51.2001 24.9001 51.1001C24.1001 50.9001 23.3001 50.6001 22.4001 50.6001H22.3C21.4 50.6001 20.5 50.9001 19.6 50.9001C18.4 50.9001 17.2 51.0001 16.1 51.0001C15.5 51.0001 15.0001 51.0001 14.4001 50.9001C12.8001 50.7001 11.1001 50.2001 9.50006 50.2001C9.10006 50.2001 8.70005 50.2001 8.30005 50.3001C6.20005 50.7001 4.50005 52.2001 2.80005 53.7001C3.00005 53.7001 3.20005 53.7001 3.30005 53.7001C3.80005 53.7001 4.40009 53.7001 4.90009 53.7001C5.10009 53.7001 5.40004 53.7001 5.60004 53.7001C6.50004 53.7001 7.30004 53.8001 8.10004 54.0001C8.90004 54.2001 9.70009 54.4001 10.4001 54.7001C10.8001 54.9001 11.1001 55.1001 11.5001 55.3001C11.8001 55.5001 12.1001 55.6001 12.4001 55.7001C13.0001 55.9001 13.7001 55.9001 14.4001 56.0001C14.5001 56.0001 14.6 56.0001 14.8 56.0001C16.6 56.0001 18.4 55.8001 20.1 55.6001C21.2 55.5001 22.5001 55.2001 23.7001 55.2001C24.2001 55.2001 24.7001 55.2001 25.2001 55.4001C26.1001 55.7001 27.0001 56.1001 28.0001 56.2001C28.2001 56.2001 28.4001 56.2001 28.5001 56.2001C29.1001 56.2001 29.7 56.1001 30.3 56.0001C30.4 56.0001 30.5 56.0001 30.6 55.9001C31.2 55.8001 31.9001 55.7001 32.5001 55.5001C33.6001 55.3001 34.6001 55.1001 35.7001 54.9001C36.3001 54.8001 36.9001 54.7001 37.5001 54.6001C38.4001 54.4001 39.4001 54.2001 40.4001 54.2001C40.9001 54.2001 41.3 54.2001 41.8 54.4001C42.7 54.6001 43.5001 55.1001 44.4001 55.3001C45.0001 55.4001 45.5 55.5001 46.1 55.5001C47.2 55.5001 48.2 55.3001 49.3 55.2001C50 55.1001 50.7001 55.2001 51.4001 55.0001C51.5001 55.0001 51.6 55.0001 51.6 55.0001C52.3 54.8001 53.0001 54.5001 53.7001 54.3001C53.8001 54.3001 53.9001 54.2001 53.9001 54.2001C54.8001 53.9001 55.8001 53.6001 56.7001 53.3001C57.5001 53.0001 58.4001 52.8001 59.2001 52.5001C59.9001 52.3001 60.5001 52.1001 61.2001 51.9001C61.3001 51.9001 61.4 51.8001 61.6 51.8001C59.6 51.1001 57.3001 50.2001 57.0001 50.1001C56.7001 50.0001 56.4001 49.9001 56.0001 49.8001C55.0001 49.5001 53.9 49.3001 52.8 49.2001C51.7 49.2001 50.5 49.1001 49.3 49.1001Z" />
<path d="M63.9 179.1C63.4 182 60.8 184 58.4 184.9C55.5 186.3 44.0999 187.1 32.7999 187.1C21.4999 187.1 10.1 186.3 7.19995 184.9C4.79995 183.9 2.19995 182 1.69995 179.1C11.5 178.2 21.9 177.3 32.7 177.3C43.7 177.3 54.1 178.2 63.9 179.1Z" />
<path d="M32.7998 177.3C21.8998 177.3 11.4998 178.2 1.7998 179.1C2.2998 182 4.8998 184 7.2998 184.9C10.1998 186.3 21.5998 187.1 32.8998 187.1C44.1998 187.1 55.5998 186.3 58.4998 184.9C60.8998 183.9 63.4998 182 63.9998 179.1C54.0998 178.2 43.6998 177.3 32.7998 177.3Z" />
<g opacity="0.5">
<path d="M37.8 178.5C37.4 178.5 36.9001 178.5 36.4001 178.4C30.8001 177.9 25.8 177.3 21.1 176.6C18.5 176.2 16 175.8 13.6 175.3C13.6 175.3 12.8 175.1 12.6 175.1C12.4 174.7 12.3 174.1 12.1 173.6L10.3 167.2C9.80004 163 9.10006 133.6 9.20006 131C9.20006 129.5 9.40006 127.8 9.70006 126C9.80006 124.8 10 123.5 10.1 122.2C10.3 120.1 10.4 116.9 10.6 113.7C10.7 111.7 10.8001 109.7 10.9001 108.4C11.0001 106.6 11.1001 96.1002 11.2001 80.3002C11.3001 71.0002 11.4001 60.5002 11.4001 59.1002C11.4001 58.3002 11.4001 57.7002 11.4001 57.1002C11.5001 57.0002 11.7 57.0002 11.8 56.9002C12.2 56.7002 12.7 56.5002 13.1 56.3002L18.1 53.8002C19.3 53.4002 20.2001 52.8002 20.9001 52.4002L21.1 52.3002L23.3 51.2002C23.4 51.2002 23.6001 51.2002 23.9001 51.3002C24.7001 51.4002 25.6001 51.6002 26.4001 51.8002C28.7001 52.3002 31.3 52.8002 34.1 52.8002C34.6 52.8002 35.0001 52.8002 35.5001 52.8002C36.6001 52.7002 37.7 52.6002 38.6 52.4002C40.1 52.2002 41.6 51.9002 43.1 51.6002C43.2 51.7002 43.4001 51.7002 43.5001 51.8002L55.3 57.8002C55.6 58.0002 55.8001 58.1002 55.9001 58.1002C55.9001 58.4002 55.8 58.8002 55.8 59.3002C55.7 59.9002 55.7 60.4002 55.6 61.0002C55.3 66.3002 55.5001 111 55.7001 115.6C55.8001 118.2 55.9 129.7 56.1 140.8C56.2 152.5 56.3001 163.6 56.5001 166.5C56.6001 169.2 56.8 172.7 55.8 174.7C55.3 175.7 53.1001 176.6 50.7001 176.8C50.0001 176.8 49.2001 176.9 48.5001 176.9C46.3001 177 43.7001 177 41.0001 177.7C40.5001 177.8 40 178 39.6 178.1C39.2 178.2 38.6001 178.4 38.4001 178.4C38.1001 178.5 38 178.5 37.8 178.5Z" />
<path d="M24.2 58.1002C24.4 58.1002 24.7 58.2002 25 58.3002C27.5 58.8002 30.5 59.4002 34 59.4002C34.6 59.4002 35.2 59.4002 35.8 59.3002C37.2 59.2002 38.5 59.0002 39.5 58.8002C40.3 58.7002 41.2 58.5002 42 58.4002L48.4 61.7002L49 62.0002C48.7 71.3002 49 111.4 49.2 116C49.3 118.5 49.4 130.5 49.5 141C49.7 155.3 49.8 164.1 49.9 166.9C49.9 167.8 50 169.2 50 170.4C49.5 170.4 48.8 170.4 48.2 170.5C45.7 170.6 42.7 170.6 39.3 171.5C38.6 171.7 38 171.8 37.6 172C37.6 172 37.6 172 37.5 172C37.4 172 37.3 172 37.2 172C31.7 171.5 26.8 171 22.3 170.3C20.8 170.1 19.3 169.8 17.9 169.6L17.6 168.7L16.9 166.2C16.4 160.8 15.8 134.4 15.9 131.4C15.9 130.2 16.1 128.6 16.3 127C16.5 125.7 16.6 124.4 16.7 123C16.9 120.8 17 117.5 17.2 114.3C17.3 112.3 17.4 110.3 17.5 109.1C17.6 107.2 17.7 98.6002 17.8 80.7002C17.9 73.6002 17.9 65.2002 18 61.5002L19.9 60.5002L20.7 60.1002C22.1 59.4002 23.3 58.6002 24.2 58.1002ZM23.1 44.8002C22.1 44.8002 21.2 45.0002 20.3 45.5002C19.5 45.9002 18.7 46.3002 17.9 46.7002C17.4 47.0002 16.3 47.8002 15.7 47.8002C13.8 48.8002 11.9 49.7002 10.1 50.7002C8.09997 51.7002 5.70002 52.4002 4.90002 54.8002C4.50002 56.1002 4.89999 57.6002 4.79999 59.0002C4.69999 62.3002 4.49999 104.9 4.29999 108.2C4.09999 111.5 3.89997 118.5 3.59997 121.9C3.39997 124.9 2.80001 128.1 2.70001 131.1C2.60001 133.5 3.3 166.6 4 168.9C4.6 171.1 5.30002 173.3 5.90002 175.6C6.30002 176.9 6.70002 178.3 7.40002 179.5C8.60002 181.3 10.5 181.5 12.4 181.9C15 182.4 17.6 182.8 20.2 183.2C25.4 184 30.6 184.5 35.9 185C36.5 185.1 37.2 185.1 37.8 185.1C38.2 185.1 38.6 185.1 39 185C40.1 184.8 41.2 184.4 42.4 184.1C45.2 183.4 48.1 183.6 50.9 183.4C54.9 183.1 59.6 181.5 61.5 177.6C63.1 174.2 63 170 62.9 166.3C62.7 160.8 62.4 120.9 62.2 115.4C62 110.6 61.8 66.3002 62.1 61.4002C62.2 60.3002 62.3 59.3002 62.4 58.3002C62.4 57.3002 62.3 56.4002 61.9 55.4002C61.1 53.7002 59.9 52.8002 58.3 52.0002C57 51.3002 55.7 50.7002 54.5 50.0002C51.8 48.6002 49.2 47.3002 46.5 45.9002C45.9 45.6002 45.3 45.1002 44.6 44.8002C44.4 44.7002 44.2 44.7002 44 44.7002C43.5 44.7002 42.9 44.9002 42.4 45.0002C40.8 45.3002 39.2 45.6002 37.6 45.9002C36.8 46.0002 35.9 46.2002 35.1 46.2002C34.8 46.2002 34.4 46.2002 34.1 46.2002C31 46.2002 28 45.3002 24.9 44.8002C24.2 44.9002 23.6 44.8002 23.1 44.8002Z" />
</g>
<g opacity="0.5">
<path d="M45.7 50L48.2999 51C50.7999 52 53.1 53.5 54.7 55.7C56.4 58 56.5998 59.9 56.5998 62.6C56.4998 68.1 57.1 116.7 57.2 122.2C57.2 124.8 56.8999 127.3 56.7999 129.9C56.5999 132.7 57.3998 166.4 57.5998 169.2C57.7998 172.4 57.3999 176.5 55.4999 179.2C54.5999 180.5 53.2999 181.6 52.2999 182.8C53.0999 180.3 53.2998 178 53.5998 175.4C53.5998 175 53.7 174.6 53.7 174.2C54.3 166.1 54.2 157.9 54.4 149.7C54.4 147.4 54.8999 144.8 54.4999 142.6C53.9999 140 53.0999 137.5 52.7999 134.8C52.2999 129.2 52.7998 123.5 52.5998 117.9C52.2998 109.2 50.2998 100.4 51.5998 91.8C51.9998 89.2 52.6999 66.5 52.9999 63.9C53.2999 60.3 52.5999 56 49.7999 53.5C48.5999 52.4 47 50.5 45.7 50Z" />
<path d="M45.7 50C47.1 50.5 48.6 52.4 49.7 53.3C52.5 55.8 53.2 60.1 52.9 63.7C52.7 66.3 51.8999 89 51.4999 91.6C50.0999 100.2 52.1999 109 52.4999 117.7C52.6999 123.3 52.1 129 52.7 134.6C53 137.3 53.9 139.8 54.4 142.4C54.8 144.6 54.2999 147.3 54.2999 149.5C54.1999 157.7 54.1998 165.9 53.5998 174C53.5998 174.4 53.4999 174.8 53.4999 175.2C53.1999 177.8 53 180.2 52.2 182.6C53.3 181.4 54.5 180.3 55.4 179C57.2 176.3 57.6999 172.2 57.4999 169C57.2999 166.2 56.6 132.5 56.7 129.7C56.9 127.1 57.1998 124.6 57.0998 122C56.9998 116.5 56.3999 67.9 56.4999 62.4C56.5999 59.7 56.2998 57.8 54.5998 55.5C52.9998 53.4 50.7 51.8 48.2 50.8C48.2 51 45.7 50 45.7 50Z" />
</g>
<g opacity="0.5">
<path d="M16.3999 49.5998C16.2999 49.5998 16.2999 49.5998 16.1999 49.6998C13.3999 50.4998 10.5999 51.5998 8.4999 53.4998C5.2999 56.4998 5.49993 80.2998 5.39993 84.1998C5.29993 88.6998 4.89989 112.5 4.79989 116.9C4.69989 120.5 4.99992 127.8 5.19992 131.4C5.39992 135.4 5.89989 170.1 6.79989 174C7.19989 175.7 7.79989 178.2 9.29989 179.3C10.0999 180 11.5999 180.2 12.5999 180.3C12.9999 180.4 15.6999 180.1 15.8999 180.2C13.5999 177.8 12.1999 174.5 11.4999 171.2C10.7999 167.9 10.7999 164.5 10.7999 161.1C10.7999 158.6 10.8999 156 11.2999 153.5C11.9999 148.9 13.9999 144.6 14.2999 139.9C14.6999 134.7 13.0999 129.6 11.3999 124.7C9.99993 120.6 8.09988 116.5 8.09988 112.1C8.09988 109.1 8.19989 106 8.29989 103C8.39989 97.1998 8.69992 91.4998 8.69992 85.6998C8.69992 82.7998 7.79988 60.0998 9.59988 57.5998C11.1999 55.1998 13.1999 53.2998 15.8999 52.1998C17.4999 51.5998 19.2999 51.3998 20.7999 50.6998C21.0999 50.4998 21.4999 50.1998 21.2999 49.8998C20.4999 49.8998 19.5999 49.9998 18.7999 49.9998C18.5999 49.9998 18.2999 49.8998 18.2999 49.6998C18.5999 49.5998 18.6999 49.3998 18.7999 49.0998C17.7999 48.9998 17.0999 49.3998 16.3999 49.5998Z" />
<path d="M18.0999 49.1996C17.5999 49.1996 16.9999 49.4996 16.3999 49.5996C16.2999 49.5996 16.2999 49.5996 16.1999 49.6996C13.3999 50.4996 10.5999 51.5996 8.4999 53.4996C5.2999 56.4996 5.49993 80.2996 5.39993 84.1996C5.29993 88.6996 4.89989 112.5 4.79989 116.9C4.69989 120.5 4.99992 127.8 5.19992 131.4C5.39992 135.4 5.89989 170.1 6.79989 174C7.19989 175.7 7.79989 178.2 9.29989 179.3C10.0999 180 11.5999 180.2 12.5999 180.3C12.5999 180.3 12.6999 180.3 12.7999 180.3C13.3999 180.3 14.7999 180.2 15.4999 180.2C15.6999 180.2 15.8999 180.2 15.8999 180.2C13.5999 177.8 12.1999 174.5 11.4999 171.2C10.7999 167.9 10.7999 164.5 10.7999 161.1C10.7999 158.6 10.8999 156 11.2999 153.5C11.9999 148.9 13.9999 144.6 14.2999 139.9C14.6999 134.7 13.0999 129.6 11.3999 124.7C9.99993 120.6 8.09988 116.5 8.09988 112.1C8.09988 109.1 8.19989 106 8.29989 103C8.39989 97.1996 8.69992 91.4996 8.69992 85.6996C8.69992 82.7996 7.79988 60.0996 9.59988 57.5996C11.1999 55.1996 13.1999 53.2996 15.8999 52.1996C17.4999 51.5996 19.2999 51.3996 20.7999 50.6996C21.0999 50.4996 21.4999 50.1996 21.2999 49.8996C20.4999 49.8996 19.5999 49.9996 18.7999 49.9996C18.5999 49.9996 18.2999 49.8996 18.3999 49.6996C18.6999 49.5996 18.7999 49.3996 18.8999 49.0996C18.3999 49.1996 18.1999 49.1996 18.0999 49.1996Z" />
</g>
<path d="M63.9999 56.8002V178C63.9999 178.1 63.9999 178.2 63.9999 178.3C63.9999 178.4 63.9999 178.6 63.9999 178.7C63.9999 178.8 63.9999 179 63.8999 179.1C63.8999 179.2 63.8999 179.2 63.8999 179.3V179.4C63.8999 179.4 63.8999 179.4 63.8999 179.5V179.6C63.8999 179.7 63.8999 179.7 63.7999 179.8C63.7999 179.9 63.7999 179.9 63.6999 180C63.6999 180 63.6999 180 63.6999 180.1V180.2V180.3C63.6999 180.3 63.6999 180.3 63.6999 180.4C63.6999 180.5 63.6999 180.5 63.5999 180.6C63.5999 180.7 63.4999 180.8 63.4999 180.8C63.4999 180.8 63.4999 180.9 63.3999 180.9C63.3999 181 63.2999 181 63.2999 181.1C63.1999 181.2 63.1999 181.3 63.0999 181.5C62.9999 181.6 62.9999 181.7 62.8999 181.8C62.7999 181.9 62.7999 182 62.6999 182C62.6999 182 62.6999 182 62.6999 182.1C62.5999 182.2 62.5999 182.2 62.4999 182.3C62.3999 182.4 62.3999 182.4 62.2999 182.5C62.1999 182.6 62.1999 182.6 62.0999 182.7C61.9999 182.8 61.9999 182.8 61.8999 182.9C61.7999 183 61.7999 183 61.6999 183.1L61.4999 183.3C61.3999 183.4 61.3999 183.4 61.2999 183.5C61.1999 183.6 61.1999 183.6 61.0999 183.7C60.9999 183.8 60.9999 183.8 60.8999 183.8C60.7999 183.8 60.7999 183.9 60.6999 183.9C60.4999 184 60.3999 184.1 60.1999 184.2C60.1999 184.2 60.1999 184.2 60.0999 184.2C59.9999 184.2 59.8999 184.3 59.7999 184.3C59.6999 184.4 59.5999 184.4 59.4999 184.4C59.1999 184.5 58.8999 184.7 58.5999 184.8C58.4999 184.9 58.2999 184.9 58.0999 185C58.0999 185 57.9999 185 57.8999 185.1C57.6999 185.2 57.5999 185.2 57.3999 185.3H57.2999C57.1999 185.3 57.0999 185.3 56.9999 185.4C56.8999 185.4 56.8999 185.4 56.7999 185.4C56.6999 185.4 56.5999 185.4 56.5999 185.5C56.0999 185.6 55.5999 185.7 55.0999 185.8C54.9999 185.8 54.8999 185.8 54.6999 185.9C54.3999 185.9 54.0999 186 53.7999 186C53.6999 186 53.5999 186 53.4999 186C52.5999 186.1 51.5999 186.2 50.5999 186.3C50.3999 186.3 50.0999 186.3 49.8999 186.4C49.3999 186.4 48.9999 186.5 48.4999 186.5C48.3999 186.5 48.1999 186.5 48.0999 186.5C47.7999 186.5 47.4999 186.5 47.1999 186.6C46.8999 186.6 46.5999 186.6 46.2999 186.7C46.1999 186.7 46.0999 186.7 46.0999 186.7C45.6999 186.7 45.3999 186.7 44.9999 186.8C44.7999 186.8 44.5999 186.8 44.4999 186.8H44.2999C43.8999 186.8 43.5999 186.8 43.1999 186.9H43.0999C42.8999 186.9 42.6999 186.9 42.5999 186.9C42.3999 186.9 42.0999 186.9 41.8999 186.9C41.8999 186.9 41.8999 186.9 41.7999 186.9C41.2999 186.9 40.7999 186.9 40.2999 186.9C39.7999 186.9 39.2999 186.9 38.7999 186.9C38.6999 186.9 38.4999 186.9 38.3999 186.9C38.0999 186.9 37.7999 186.9 37.4999 186.9C37.2999 186.9 37.1999 186.9 36.9999 186.9C36.7999 186.9 36.6999 186.9 36.4999 186.9C35.9999 186.9 35.3999 186.9 34.8999 186.9C34.4999 186.9 34.1999 186.9 33.7999 186.9C33.5999 186.9 33.3999 186.9 33.2999 186.9C31.8999 186.9 30.4999 186.9 29.0999 186.9C28.7999 186.9 28.5999 186.9 28.2999 186.9C27.4999 186.9 26.6999 186.9 25.9999 186.8C25.6999 186.8 25.2999 186.8 24.9999 186.8C24.6999 186.8 24.2999 186.8 23.9999 186.8C23.7999 186.8 23.6999 186.8 23.4999 186.8C22.9999 186.8 22.4999 186.8 21.9999 186.7C21.5999 186.7 21.1999 186.7 20.6999 186.6C20.4999 186.6 20.3999 186.6 20.1999 186.6C18.2999 186.5 16.5999 186.4 14.9999 186.2C14.7999 186.2 14.6999 186.2 14.4999 186.2C13.7999 186.1 13.1999 186.1 12.5999 186C12.4999 186 12.3999 186 12.2999 186C11.7999 185.9 11.3999 185.9 10.9999 185.8C10.8999 185.8 10.7999 185.8 10.6999 185.8C10.4999 185.8 10.2999 185.7 10.0999 185.7C9.99985 185.7 9.79989 185.6 9.69989 185.6C9.59989 185.6 9.49987 185.5 9.29987 185.5C9.19987 185.5 9.09985 185.5 9.09985 185.4C8.99985 185.4 8.79989 185.3 8.69989 185.3C8.39989 185.2 8.19988 185.1 7.99988 185C7.99988 185 7.8999 185 7.8999 184.9C7.8999 184.9 7.79987 184.9 7.79987 184.8C7.69987 184.7 7.4999 184.7 7.3999 184.6C7.3999 184.6 7.39987 184.6 7.29987 184.6C7.09987 184.5 6.79985 184.4 6.59985 184.3C6.49985 184.3 6.4999 184.2 6.3999 184.2C6.2999 184.2 6.29989 184.1 6.19989 184.1C6.09989 184.1 6.09988 184 5.99988 184C5.59988 183.7 5.09989 183.4 4.69989 183.1C4.59989 183.1 4.59988 183 4.49988 183C3.99988 182.6 3.49989 182.1 3.19989 181.5C3.19989 181.4 3.09985 181.4 3.09985 181.3C2.99985 181.2 2.9999 181.1 2.8999 181C2.8999 180.9 2.79987 180.9 2.79987 180.8C2.69987 180.7 2.69985 180.6 2.59985 180.5C2.49985 180.4 2.4999 180.2 2.3999 180C2.3999 179.9 2.39987 179.9 2.29987 179.8V179.7C2.29987 179.6 2.29989 179.6 2.19989 179.5C2.19989 179.4 2.19985 179.3 2.09985 179.2C2.09985 179.1 2.09988 179 1.99988 178.9C1.89988 178.6 1.8999 178.2 1.8999 177.8V56.8002V56.7002C1.8999 55.6002 2.19989 54.6002 2.69989 53.7002C3.39989 52.4002 4.4999 51.4002 5.8999 50.9002L21.3999 44.8002C22.1999 44.5002 22.6999 43.9002 22.9999 43.1002C23.0999 42.8002 23.0999 42.5002 23.0999 42.2002V36.7002H42.8999V42.2002C42.8999 42.6002 42.9999 42.9002 43.0999 43.2002C43.3999 43.9002 43.8999 44.4002 44.5999 44.7002L60.0999 50.8002C60.6999 51.0002 61.1999 51.4002 61.6999 51.7002C63.1999 52.9002 64.0999 54.7002 64.0999 56.6002C63.9999 56.8002 63.9999 56.8002 63.9999 56.8002Z" />
<g opacity="0.2">
<path d="M42.9 43.2002C42 43.6002 40.5998 43.6002 40.0998 43.6002C37.0998 43.7002 34.0999 43.7002 30.9999 43.6002C29.5999 43.6002 28.3 43.5002 26.9 43.5002C26.3 43.5002 24 43.5002 22.7 43.1002C22.8 42.8002 22.7999 42.5002 22.7999 42.2002V36.7002H42.5998V42.2002C42.6998 42.6002 42.8 42.9002 42.9 43.2002Z" />
<path d="M42.6998 36.7002H22.8998V42.2002C22.8998 42.5002 22.8998 42.8002 22.7998 43.1002C24.0998 43.5002 26.3998 43.4002 26.9998 43.5002C28.3998 43.6002 29.6998 43.6002 31.0998 43.6002C32.7998 43.6002 34.4998 43.7002 36.1998 43.7002C37.4998 43.7002 38.7998 43.7002 40.0998 43.6002C40.5998 43.6002 41.9998 43.6002 42.8998 43.2002C42.7998 42.9002 42.6998 42.5002 42.6998 42.2002V36.7002Z" />
</g>
<path d="M43.1999 27.4002V40.8002C43.1999 41.9002 40.4999 41.9002 39.7999 42.0002C36.8999 42.1002 33.9999 42.1002 31.0999 42.0002C29.7999 42.0002 28.4999 41.9002 27.1999 41.9002C26.3999 41.9002 22.4999 42.0002 22.3999 40.9002V27.6002C22.3999 27.5002 22.3999 27.5002 22.3999 27.5002C22.3999 26.9002 22.7999 26.4002 23.3999 26.2002H23.4999H23.5999H23.6999H41.8999C42.5999 26.2002 43.1999 26.7002 43.1999 27.4002Z" />
<path d="M31.0999 41.9999C29.7999 41.9999 28.4999 41.8999 27.1999 41.8999C26.3999 41.8999 22.4999 41.9999 22.3999 40.8999C22.3999 40.2999 22.3999 39.6999 22.3999 38.9999V27.4999C22.3999 27.0999 22.5999 26.5999 22.8999 26.3999C23.2999 26.0999 23.7999 26.3999 24.1999 26.4999C24.3999 26.5999 24.5999 26.5999 24.7999 26.7999C24.8999 26.8999 24.8999 26.8999 24.9999 26.8999C25.0999 26.9999 25.2999 26.9999 25.3999 26.8999C26.0999 26.7999 26.7999 26.6999 27.4999 26.6999C28.2999 26.5999 29.1999 26.4999 29.9999 26.6999C30.0999 26.6999 30.1999 26.7999 30.1999 26.8999C29.5999 27.2999 28.9999 27.5999 28.4999 27.9999C27.2999 28.8999 26.4999 30.1999 26.0999 31.5999C25.8999 32.1999 25.8999 32.8999 25.7999 33.4999C25.6999 34.1999 25.6999 34.8999 25.6999 35.6999C25.6999 35.9999 25.6999 36.2999 25.8999 36.5999C26.2999 37.4999 27.7999 37.4999 28.5999 37.7999C29.4999 38.1999 30.1999 39.0999 30.5999 40.0999C30.8999 40.6999 30.9999 41.3999 31.0999 41.9999Z" />
<path d="M39.2999 6.59987H27.1999C27.1999 6.59987 20.8998 6.39985 17.5998 5.79985C14.9998 5.29985 9.39988 5.49986 5.69988 5.89986C4.19988 6.09986 2.69987 5.79987 1.49987 5.09987L0.39989 4.49986C0.0998899 4.29986 0.0998654 3.89985 0.499866 3.79985C2.19987 3.19985 6.19989 1.99988 11.3999 1.19988C15.5999 0.499874 20.4999 0.0998681 25.4999 0.599868C27.1999 0.799868 28.9999 0.899856 30.7999 0.899856C33.3999 0.899856 35.9999 1.09986 38.4999 0.899856C39.2999 0.799856 40.4999 0.499862 41.1999 0.999857C41.4999 1.19986 41.5998 1.49985 41.5998 1.79985C41.3998 2.69985 40.3998 2.09987 40.0998 2.59987C39.9998 2.69987 40.1999 3.29986 40.1999 3.49986C40.1999 4.49986 39.9999 5.69987 39.2999 6.59987Z" />
<path d="M35.1999 6.6002H27.1999C27.1999 6.6002 20.8998 6.40018 17.5998 5.80018C14.9998 5.30018 9.39988 5.50018 5.69988 5.90018C4.19988 6.10018 2.69987 5.8002 1.49987 5.1002L0.39989 4.50019C0.0998899 4.30019 0.0998654 3.90018 0.499866 3.80018C2.19987 3.20018 6.19989 2.0002 11.3999 1.2002C10.9999 1.5002 10.6999 1.8002 10.4999 2.2002C10.2999 2.7002 10.2999 3.3002 10.7999 3.6002C11.2999 4.0002 11.9999 3.90018 12.6999 3.80018C14.3999 3.60018 16.1999 3.70018 17.8999 3.90018C20.2999 4.30018 22.6998 5.10019 25.0998 5.50019C27.8998 5.90019 30.7999 5.70019 33.6999 6.00019C34.2999 6.00019 34.8999 6.2002 35.1999 6.6002Z" />
</g>
<defs>
<clipPath id="clip0_104_25">
<rect width="65" height="188" fill="white"/>
</clipPath>
</defs>
</svg>
