<svg width="196" height="109" viewBox="0 0 196 109" fill="none" xmlns="http://www.w3.org/2000/svg">
<g clip-path="url(#clip0_104_84)">
<path d="M26.3 32.4C35.247 32.4 42.5 25.147 42.5 16.2C42.5 7.253 35.247 0 26.3 0C17.353 0 10.1 7.253 10.1 16.2C10.1 25.147 17.353 32.4 26.3 32.4Z" />
<path d="M33.2 109H19.4C16.3 109 13.7 106.4 13.7 103.3V41.5999C13.7 38.4999 16.3 35.8999 19.4 35.8999H33.2C36.3 35.8999 38.9 38.4999 38.9 41.5999V103.3C38.9 106.4 36.3 109 33.2 109Z" />
<path d="M46.7 86.8002C43.7 86.8002 41.3 84.4002 41.3 81.4002V43.1002C41.3 40.1002 43.7 37.7002 46.7 37.7002C49.7 37.7002 52.1 40.1002 52.1 43.1002V81.4002C52.1 84.4002 49.6 86.8002 46.7 86.8002Z" />
<path d="M6 86.8002C3 86.8002 0.599976 84.4002 0.599976 81.4002V43.1002C0.599976 40.1002 3 37.7002 6 37.7002C9 37.7002 11.4 40.1002 11.4 43.1002V81.4002C11.3 84.4002 8.9 86.8002 6 86.8002Z" />
<path d="M169.7 32.4C178.647 32.4 185.9 25.147 185.9 16.2C185.9 7.253 178.647 0 169.7 0C160.753 0 153.5 7.253 153.5 16.2C153.5 25.147 160.753 32.4 169.7 32.4Z" />
<path d="M176.6 109H162.8C159.7 109 157.1 106.4 157.1 103.3V41.5999C157.1 38.4999 159.7 35.8999 162.8 35.8999H176.6C179.7 35.8999 182.3 38.4999 182.3 41.5999V103.3C182.3 106.4 179.7 109 176.6 109Z" />
<path d="M190 85.8002C187 85.8002 184.6 83.4002 184.6 80.4002V42.1002C184.6 39.1002 187 36.7002 190 36.7002C193 36.7002 195.4 39.1002 195.4 42.1002V80.4002C195.4 83.4002 193 85.8002 190 85.8002Z" />
<path d="M149.3 85.8002C146.3 85.8002 143.9 83.4002 143.9 80.4002V42.1002C143.9 39.1002 146.3 36.7002 149.3 36.7002C152.3 36.7002 154.7 39.1002 154.7 42.1002V80.4002C154.7 83.4002 152.3 85.8002 149.3 85.8002Z" />
<path d="M81 49H64V53H81V49Z" />
<path d="M106 49H89V53H106V49Z" />
<path d="M130 49H113V53H130V49Z" />
</g>
<defs>
<clipPath id="clip0_104_84">
<rect width="196" height="109" fill="white"/>
</clipPath>
</defs>
</svg>
