<svg xmlns="http://www.w3.org/2000/svg" viewBox="0 0 208.95 266.039">
  <defs>
    <style>
      .cls-1 {
        fill: #40513b;
      }
    </style>
  </defs>
  <g id="Layer_2" data-name="Layer 2">
    <g id="Layer_11" data-name="Layer 11">
      <g>
        <path class="cls-1" d="M129.674,87.605V87.6C129.681,87.678,129.674,87.605,129.674,87.605Z"/>
        <path class="cls-1" d="M160.944,70.335c.007-.023.012-.046.019-.069.014-.042.031-.083.046-.125C160.986,70.206,160.966,70.271,160.944,70.335Z"/>
        <path class="cls-1" d="M73.073,67.2a.293.293,0,0,1,.019.043Z"/>
        <path class="cls-1" d="M149.514,68.606l-.006.141v.019C149.509,68.712,149.511,68.66,149.514,68.606Z"/>
        <path class="cls-1" d="M56.784,14.248l-.012.01-.015.008Z"/>
        <path class="cls-1" d="M129.588,165.674c0-.026.013-.051.018-.077C129.564,165.834,129.563,165.808,129.588,165.674Z"/>
        <path class="cls-1" d="M124.622,182.021l.039.109C124.633,182.054,124.662,182.135,124.622,182.021Z"/>
        <path class="cls-1" d="M153.435,168.031l.01-.015Z"/>
        <path class="cls-1" d="M147.972,215.942l.007,0Z"/>
        <path class="cls-1" d="M172.144,150.863c.006-.019.013-.037.019-.056C172.121,150.93,172.1,150.988,172.144,150.863Z"/>
        <path class="cls-1" d="M170.626,148.938l-.042.127Z"/>
        <path class="cls-1" d="M151.438,166.224l-.057.088C151.5,166.123,151.485,166.152,151.438,166.224Z"/>
        <path class="cls-1" d="M167.761,157.581l-.009.029Z"/>
        <path class="cls-1" d="M143.9,188.544l0,.041Z"/>
        <path class="cls-1" d="M140.512,233.012l.019-.022Z"/>
        <path class="cls-1" d="M184.185,200.622l.013-.015.006-.008Z"/>
        <path class="cls-1" d="M170,205.641l.057-.038C169.911,205.706,169.927,205.69,170,205.641Z"/>
        <path class="cls-1" d="M191.129,170.533c.008-.043.018-.086.026-.129C191.1,170.714,191.141,170.466,191.129,170.533Z"/>
        <path class="cls-1" d="M190.069,166.237c.005-.03.005-.06.01-.09l0,.053Z"/>
        <path class="cls-1" d="M189.2,161.95l-.014-.039C189.239,162.059,189.253,162.1,189.2,161.95Z"/>
        <path class="cls-1" d="M188.342,166.24v.008a.074.074,0,0,0,0-.019l0,.009v-.017c.009.041.014.083.025.124C188.358,166.31,188.349,166.275,188.342,166.24Z"/>
        <path class="cls-1" d="M189.163,134.719l.012-.024Z"/>
        <path class="cls-1" d="M207.5,143.223c0-.035.006-.07.008-.106C207.5,143.334,207.5,143.3,207.5,143.223Z"/>
        <path class="cls-1" d="M208.253,120.839a1.921,1.921,0,0,0-.987-.051,5.965,5.965,0,0,0-1.271.336c-.668.245-1.309.539-1.949.845.5-.525.964-1.072,1.405-1.624.772-.968,1.693-2.834.7-3.568a1.066,1.066,0,0,0-1.39.12c-.554.454-1.126.889-1.691,1.33.3-.935.124-.251.826-2.714a11.906,11.906,0,0,0,.289-1.156.878.878,0,0,0-1-1.052,1.2,1.2,0,0,0-.74.508,27.532,27.532,0,0,0-1.812,2.866c-.252.434-1.4,2.366-1.579,2.731-.429-1.034-.888-2.055-1.356-3.073a15.025,15.025,0,0,0-1.241-2.271.93.93,0,0,0-1.206-.063c-.72.514-.274,2.544-.115,3.411.068.369.193,1.061.371,2.105a1.412,1.412,0,0,0-.371.325,15.406,15.406,0,0,0-1.2,1.763c-6.422,11.245-11.207,15.247-9.992,29.171a30.051,30.051,0,0,0,.539,3.53,40.547,40.547,0,0,0,1.465,5.234c.551,1.562,1.248,3.065,1.826,4.616a13.884,13.884,0,0,1,.433,1.409c.044.218.082.437.131.654,0-.031,0-.061-.007-.092v0l0-.076a.877.877,0,0,0,.806.917,1.155,1.155,0,0,0-.106.366c-.054.546-.1,1.093-.175,1.636-.071.492-.153.983-.242,1.472-.3,1.533-.66,3.058-1.012,4.579-.19.817-.385,1.631-.6,2.441-.227.846-.452,1.7-.725,2.53l-.048.147a22.185,22.185,0,0,1-.9,2.2c-.8,1.628-1.658,3.229-2.576,4.789-1.023,1.738-2.059,3.47-3.131,5.178a52.713,52.713,0,0,1-3.775,5.028,47.442,47.442,0,0,1-3.767,4.049,41.173,41.173,0,0,1-3.645,2.841c-.793.554-1.6,1.086-2.415,1.611a72.392,72.392,0,0,1-10.912,6.385c2.836-4.73,6.1-10.727,7.842-15.986a29.568,29.568,0,0,0,.844-3.265c.222-1.067.4-2.145.539-3.224.294-2.228.481-4.47.73-6.7.245-2.208.543-4.41.85-6.609.232-1.659.468-3.313.738-4.965.261-1.6.545-3.2.839-4.8q.054-.293.11-.584v0c1.033-5.444,1.964-7.707,5.764-18.9.357-1.05.727-2.095,1.063-3.15a23.146,23.146,0,0,0,.779-3.134,11.285,11.285,0,0,0,.174-1.671,4.716,4.716,0,0,0-.042-.751,3.39,3.39,0,0,0-.393-1.31,1.719,1.719,0,0,0-.6-.64,1.507,1.507,0,0,0-.805-.187,1.189,1.189,0,0,0-.158.014,2.39,2.39,0,0,0-1.291.781,10.675,10.675,0,0,0-1,1.263c-.61.874-1.194,1.766-1.8,2.639-8.257,11.87-2.18.883-17.443,24.536.024-.041-.379.588-.4.628a49.54,49.54,0,0,0-3.693,6.305c-2.092,4.693-5.42,10.3-3.289,33.274a37.97,37.97,0,0,0,.869,5.741c-15.8-16.619-18.046-30.312-20.884-35.721,4.538-3.845,6.439-13.227,5.181-15.97a8.493,8.493,0,0,0,.524-.942,1.307,1.307,0,0,0,1.415-.326,12.243,12.243,0,0,0,.98-1.368c.294-.45.584-.9.875-1.355-.015.023-.03.048-.046.071.624-.962,1.264-1.913,1.939-2.839.7-.961,1.442-1.888,2.205-2.8,3.155-3.683,6.658-7.08,9.5-11.024a30.12,30.12,0,0,0,2.7-4.468c.389-.8.744-1.624,1.114-2.438q.505-1.11,1.028-2.213l-.036.076c.048-.1.1-.2.14-.3s.09-.181.135-.275l-.072.151c1.038-2.165,2.238-4.253,3.438-6.332,1.213-2.1,2.454-4.187,3.638-6.306.591-1.057,1.162-2.124,1.691-3.213.54-1.109,1.011-2.249,1.462-3.4.875-2.22,1.618-4.486,2.4-6.739.4-1.159.8-2.32,1.226-3.47q.631-1.7,1.328-3.364c.943-2.266,1.955-4.5,2.881-6.775a35.074,35.074,0,0,0,2.246-7.353,39.3,39.3,0,0,0,.414-7.71q-.057-1.947-.152-3.894c-.063-1.324-.136-2.641-.28-3.959-.271-2.513-.645-5.011-1.155-7.488l-.051-.237c-.265-1.225-.55-2.45-.914-3.651a24.48,24.48,0,0,0-1.295-3.526,11.572,11.572,0,0,0-1.028-1.763,2.684,2.684,0,0,0-1.635-1.135,1.247,1.247,0,0,0-.883.078c-.014-.208-.031-.415-.037-.624-.016-.654.016-1.311.049-1.964.067-1.193.176-2.382.28-3.572.122-1.367.216-2.735.316-4.1.1-1.329.186-2.66.3-3.987.126-1.458.256-2.914.333-4.375a29,29,0,0,0-.715-8.782,30.567,30.567,0,0,0-1.352-4.052c-.514-1.24-1.106-2.446-1.589-3.7-.014-.034-.026-.068-.038-.1a18.207,18.207,0,0,1-.6-2.086c-.147-.662-.291-1.324-.465-1.981a14.983,14.983,0,0,0-1.673-4.032,8.74,8.74,0,0,0-.676-.946,6.112,6.112,0,0,0-1.457-1.279,13.292,13.292,0,0,0-1.733-.9,14.222,14.222,0,0,0-3.913-1.17,18.753,18.753,0,0,0-3.984.054h.023a14.079,14.079,0,0,0-4.37.87,45.823,45.823,0,0,0-4.086,2.286,11.933,11.933,0,0,1-1.085.5c-.213.071-.427.133-.646.189-.212.039-.424.072-.638.1-.285.017-.568.02-.852.009-.21-.019-.418-.046-.626-.079-.121-.03-.241-.061-.36-.1-.155-.057-.306-.12-.456-.187-.217-.113-.428-.234-.636-.362-.289-.2-.566-.4-.836-.626-1.055-.922-1.987-1.985-3.117-2.82A7.785,7.785,0,0,0,125.387.034c-.067.008-.134.016-.2.026a5.079,5.079,0,0,0-2.044.769q-.538.353-1.044.746-.908.711-1.761,1.485c-1,.91-1.962,1.858-2.937,2.794-.51.491-1.019.981-1.512,1.49A10.767,10.767,0,0,0,115,8.4a1.658,1.658,0,0,0-.143-.278,1.745,1.745,0,0,0-1.115-.621c-.343-.056-.691-.06-1.035-.1-.079-.03-.155-.061-.232-.1l-.185-.1c-.09-.064-.176-.13-.262-.2-.227-.205-.44-.422-.649-.643-.786-.867-1.536-1.766-2.386-2.572a12.875,12.875,0,0,0-1.569-1.264,11.631,11.631,0,0,0-1.859-1.016,5.829,5.829,0,0,0-3.242-.41,6.8,6.8,0,0,0-1.629.458A8.352,8.352,0,0,0,98.934,2.67c-.506.385-1,.791-1.5,1.183-.634.495-1.279.978-1.926,1.459s-1.319.973-1.922,1.522a11.149,11.149,0,0,0-2.07,2.5c-.441.738-.8,1.519-1.166,2.3a19.418,19.418,0,0,1-1,1.823,8.249,8.249,0,0,1-1.121,1.389,1.3,1.3,0,0,1-.248.186.791.791,0,0,1-.116.045.578.578,0,0,1-.153.008,4.367,4.367,0,0,1-.739-.171c-2.022-.728-1.047-.489-3.551-1.351-1.888-.651-5.834-1.654-7.665-2.045a32.558,32.558,0,0,0-4.043-.694,14.771,14.771,0,0,0-4.215.1c-.327.068-.657.129-.976.226-.342.1-.676.223-1.011.347-.537.2-1.065.426-1.6.627a15.961,15.961,0,0,1-1.786.5c-.727.148-1.459.241-2.194.326a.909.909,0,0,1-.135.224,1.017,1.017,0,0,1-1.037.368h-.01a1.053,1.053,0,0,1-.278.174l-.024.01a.96.96,0,0,1-.132.042.776.776,0,0,1-.09.028,2.877,2.877,0,0,1-.379.23,1.837,1.837,0,0,1-.6.21h0a.962.962,0,0,1-.383-.021c-.029.015-.059.031-.088.048a1.689,1.689,0,0,0-.487.443,2.651,2.651,0,0,0-.395,1.2,18.544,18.544,0,0,0,.694,5.3c.166.7,1.184,4.518,1.71,6.652,1.671,6.769,2.143,13.9,2.645,18.368.174,1.554.155,2.251,1.663,7.608a1.832,1.832,0,0,0-1.017-.732c-6.6-1.736-6.863-.076-10.915.891-3.6.7-6.919-.318-11.768.2a10.108,10.108,0,0,0-4.18,1.35,8.42,8.42,0,0,0-1.692,1.413c-.016.016-.029.036-.045.053a3.392,3.392,0,0,0-.5,0,3.134,3.134,0,0,0-.418.093,2.237,2.237,0,0,0-1.331,1.136,3.806,3.806,0,0,0-.179,2.371,13.363,13.363,0,0,0,.455,1.773,25.477,25.477,0,0,0,1.4,3.335c1.09,2.224,2.366,4.355,3.624,6.486s2.53,4.287,3.791,6.433c1.237,2.1,2.447,4.222,3.651,6.344,1.215,2.141,2.455,4.265,3.768,6.347,2.689,4.262,5.7,8.3,8.625,12.4q.91,1.281,1.814,2.567l.048.069-.016-.023.579.824-.024-.033q2.2,3.147,4.349,6.326c1.375,2.028,2.755,4.057,4.019,6.156.983,1.632,1.906,3.292,2.8,4.973l.027.052.037.069-.015-.029c.041.078.081.156.122.233l-.049-.092.3.565-.013-.023.152.289c-.015-.029-.031-.058-.045-.087,2.4,4.6,4.617,9.291,7.267,13.748.652,1.1,1.367,2.157,2.086,3.212.677.993,1.384,1.969,2.12,2.918.794,1.027,1.6,2.053,2.467,3.017s1.761,1.912,2.677,2.837c1.78,1.8,5.765,5.68,7.725,7.431a1.15,1.15,0,0,0-.36,1.524c-2.718-.93-3.593-1.4-5.662-2.244-.158-.065-.319-.128-.477-.193-.5-.261-1-.531-1.5-.782-.216-.107-.434-.214-.652-.318-1.022-.487-2.067-.922-3.128-1.315a29.118,29.118,0,0,0-3.342-1.03c-1.171-.28-2.361-.487-3.55-.679-1.134-.182-2.274-.336-3.42-.429-.548-.045-1.1-.078-1.648-.084s-1.089.016-1.632.045c-.517.027-1.035.049-1.55.092-.095.008-.207.016-.322.034a1.327,1.327,0,0,0-.467.143.8.8,0,0,0-.217-.015.923.923,0,0,0-.763.779.9.9,0,0,0,.825,1c.241.054.475.129.711.2a.816.816,0,0,0,.922.791.779.779,0,0,0,.469-.273c.087.037.176.067.262.1l.5.238c.7.368,1.382.758,2.058,1.17,1.056.685,2.092,1.4,3.092,2.162,1.073.821,2.131,1.662,3.192,2.5q3.111,2.462,6.332,4.769a42.259,42.259,0,0,0,6.829,4.22c5.525,2.526,13.67,4.1,19.791,2.9.228.891,3.37,3.695,6.647,4.219,2.408,12.44,7.079,21.416,14.147,31.942-.852-.481-1.7-.964-2.526-1.5l.077.05-.247-.16.027.018c-2.064-1.342-4.049-2.811-6.214-3.99a54.243,54.243,0,0,0-7.064-3.123,64.45,64.45,0,0,0-7.379-2.29,38.8,38.8,0,0,0-3.941-.759c-1.31-.174-2.627-.272-3.947-.321-13.678-.522-16.2-.087-22.034,1.124-2.382-1.371-4.481-2.666-6.667-4.066l-1.418-.905-.121-.078c-.051-.033-.1-.069-.158-.1l-.433-.281c-.051-.033-.1-.069-.155-.1a4.458,4.458,0,0,0-.4-.261c-.066-.043-.131-.083-.2-.126l-.134-.086c-1.673-1.085-3.312-2.221-4.93-3.383-1.673-1.2-3.268-2.5-4.858-3.8q-1.376-1.2-2.727-2.415c-.866-.782-1.712-1.582-2.563-2.373-1.7-1.582-3.374-3.186-4.973-4.872-.916-1.017-1.812-2.044-2.678-3.1-.829-1.015-1.6-2.085-2.464-3.069a.929.929,0,0,0-.825-.316.828.828,0,0,0-.408.182.882.882,0,0,0-.134,1.229c.083.1.161.208.243.311l.006.088a.838.838,0,0,0-.621.925c.07.39.1.8.155,1.189.086.562.188,1.125.323,1.677.277,1.131.59,2.253.969,3.356.423,1.24.882,2.462,1.37,3.676.457,1.135.968,2.247,1.489,3.354a57.325,57.325,0,0,0,3.542,6.347c1.322,2.079,2.818,4.045,4.34,5.982,1.459,1.858,3.1,3.832,4.9,5.809a85.717,85.717,0,0,0-12.2,4.89c-10.108-8.269-31.5,4.99-37.277,11.5a1.661,1.661,0,0,0-.973-1.209,19.268,19.268,0,0,0-2.122-.667c-.613-.17-1.226-.34-1.837-.515a20.249,20.249,0,0,0-1.982-.5,3.542,3.542,0,0,0-1.115-.053,1.78,1.78,0,0,0-.3.07,1.013,1.013,0,0,0-.784,1.113.993.993,0,0,0,.677.787c.23.1.475.176.707.274.4.167.784.351,1.172.535.658.319,1.313.645,1.966.972a22.713,22.713,0,0,0,2.087.956,1.114,1.114,0,0,0-.158-.05,9.634,9.634,0,0,0-1.664.02c-.222.021-.444.05-.665.083-.251.037-.5.08-.754.123-.449.076-.9.161-1.344.247-.337.065-.676.153-1.018.2a.954.954,0,0,0-.159.009.886.886,0,0,0-.7.585l.005-.022a.984.984,0,0,0-.051.2l0,0a1.115,1.115,0,0,0,.807,1.144,7.427,7.427,0,0,0,1.766.3c1.008.105,2.013.212,3.024.272a15.874,15.874,0,0,0-2.376,2.886,12.689,12.689,0,0,0-.93,1.646,2.144,2.144,0,0,0-.177,1.651,1.316,1.316,0,0,0,.579.655,1.182,1.182,0,0,0,1.659-.587,1.122,1.122,0,0,0,.075-.548c.122-.175.252-.344.384-.511a17.934,17.934,0,0,1,1.276-1.3c.615-.551,1.247-1.08,1.845-1.646a1.6,1.6,0,0,0-.677-2.665,1.59,1.59,0,0,0-.3-2.533,1.541,1.541,0,0,0,1.594-.374.893.893,0,0,0,.227.252.917.917,0,0,0,1.278-.19c.018-.027.037-.051.057-.076.242-.272.5-.524.763-.774a51.88,51.88,0,0,1,4.454-3.458c.977-.672,1.97-1.308,2.985-1.921,1.038-.626,2.111-1.2,3.181-1.766a70.9,70.9,0,0,1,7.834-3.606,30.724,30.724,0,0,1,3.164-.9,27.007,27.007,0,0,1,3.078-.434,27.33,27.33,0,0,1,2.946-.071c.575.046,1.142.123,1.709.222a18.158,18.158,0,0,1,1.763.439c.313.109.62.227.922.364.151.081.3.165.444.253.247.166.476.353.712.53a1,1,0,0,0,1.208,1.022c.039.039.081.075.12.114.143.165.279.333.408.509.1.161.192.321.284.485.142.3.273.6.4.912.1.282.184.563.261.851a4.239,4.239,0,0,1,.093,1.095,5.2,5.2,0,0,1-.2,1.04,7.921,7.921,0,0,1-.869,1.824,12.4,12.4,0,0,1-2.04,2.352,27.07,27.07,0,0,1-6.088,4.252,54.144,54.144,0,0,1-6.183,2.707,35.463,35.463,0,0,1-4.122,1.256c-.651.125-1.3.217-1.959.279a25.539,25.539,0,0,1-2.954.034,47.982,47.982,0,0,1-5.585-.724,25.807,25.807,0,0,1-2.831-.736l-.02-.008c-.137-.985-1.129-1.7-2.484-.9a1.5,1.5,0,0,0-2.016,1.257c-8.291,5.448-2.97,7.483-2.449,5.331.409-.726,3.988-2.855,4.7-3.283.747.217,1.5.406,2.252.582,1.2.281,2.42.511,3.641.7a34.341,34.341,0,0,0,7.4.527,19.238,19.238,0,0,0,3.776-.612c1.244-.335,2.47-.739,3.675-1.192,7.006-2.634,18.313-8.611,17.089-15.988,4.525-2.647,11.147-3.491,16.518-4.156,1.219.791,1.835,1.206,3.739,2.305a54.686,54.686,0,0,0,6.55,3.223c3.348,1.422,10.519,3.579,13.5,4.447,18.41,5.351,31.127,4.267,40.651,3.494-14.725,9.585-27.006,6.446-40.7,16.122-2.47,1.744-4.1,3.086-5.828,4.557a66.007,66.007,0,0,0-7.714,7.851c-2.7,3.274-3.012,3.717-3.6,4.481-1.014,1.308-.464.577-2.628,3.5a17.1,17.1,0,0,0-2.209,3.775.846.846,0,0,0,1.6.525c.016-.042.035-.083.052-.124.148-.061.025-.015.149-.086a.81.81,0,0,0,.794,1.039c.432-.006.592-.245.781-.562a9.892,9.892,0,0,1,1.126-1.23,22.365,22.365,0,0,1,2.073-1.655,47.3,47.3,0,0,1,6.21-3.582,52.214,52.214,0,0,1,5.793-2.4c3.032-1.021,6.258-2.027,14.306-4.059,4.889-1.235,9.174-2.295,14.594-4.071,1.853-.606,4.968-1.7,6.894-2.492,9.5-3.9,14.843-7.49,21.5-16.614,1.249,2.559,3.513,5.971,7.412,11.471a27.126,27.126,0,0,0,4.8,5.442,22.775,22.775,0,0,0,3.082,2.1,29.258,29.258,0,0,0,3.255,1.57c1.119.47,2.278.85,3.423,1.252,1.112.389,2.227.77,3.341,1.155,2.272.785,4.52,1.642,6.751,2.535,1.377.551,2.733,1.154,4.071,1.791l-.158-.076.814.389-.118-.056.025.012c1.074.522,2.15,1.046,3.2,1.615q1.615.873,3.167,1.851a51.682,51.682,0,0,1,4.766,3.568c.867.739,1.708,1.507,2.556,2.265a1.305,1.305,0,0,0,1.822-.035,1.236,1.236,0,0,0,.208-.329.812.812,0,0,0,.469.073.851.851,0,0,0,.6-1.272c-.059-.091-.123-.177-.186-.264-.653-.946-1.27-1.919-1.9-2.882S194,259,193.4,258c-.625-1.043-1.244-2.088-1.893-3.115-.674-1.063-1.372-2.109-2.083-3.148-1.388-2.031-2.817-4.034-4.377-5.938-.783-.954-1.618-1.868-2.445-2.785s-1.672-1.835-2.513-2.748c-.817-.885-1.642-1.763-2.49-2.62a31.567,31.567,0,0,0-2.673-2.393c-1.857-1.494-3.781-2.905-5.706-4.307-15.338-11.178-11.812-9.687-13.854-11.367a9.832,9.832,0,0,1,2.273-1.191c.488-.214.972-.437,1.454-.662q1.589-.744,3.157-1.526c2.1-1.052,4.247-2.024,6.364-3.051,1.136-.551,2.255-1.128,3.357-1.746a33.585,33.585,0,0,0,3.088-2.03,46.36,46.36,0,0,0,5.459-4.692c1.307-1.283,2.5-2.679,3.682-4.077a47.58,47.58,0,0,0,7.806-12.1,40.592,40.592,0,0,0,2.232-6.829c.532-2.379.956-4.774,1.331-7.183.306-1.959.54-3.927.759-5.9a.8.8,0,0,0,.73-.225.82.82,0,0,0,.2-.372c.272-.494.589-.966.888-1.444q.467-.741.929-1.482c.654-1.048,1.3-2.1,1.967-3.14l-.008.012c.7-1.076,1.418-2.137,2.086-3.231a30.886,30.886,0,0,0,2.977-6.775,36.742,36.742,0,0,0,1.4-8.723,52.205,52.205,0,0,0-1.386-14.216c-.662-2.914-.523-2.044-.875-4.045l.381-.259c1.206-.815,1.624-1.02,2.711-1.827A1.119,1.119,0,0,0,208.253,120.839Zm-11.594,46.145c.067.026.135.054.2.081v0c.03.02.059.04.09.059h0Zm-152.426,9.9c-.081-.267-.143-.536-.219-.8.162.265.318.535.486.8.661,1.02,1.35,2.022,2.056,3.012s1.464,1.968,2.237,2.92q1.179,1.452,2.394,2.871c.792.928,1.584,1.857,2.4,2.766,1.651,1.844,3.388,3.6,5.151,5.342.862.85,1.73,1.692,2.622,2.51,1.808,1.658,4.326,3.839,6.4,5.413-3.577.833-3.461.722-7.007,1.692-1.593-1.638-3.4-3.818-4.834-5.584-.59-.734-1.175-1.467-1.747-2.215-.636-.835-1.253-1.679-1.876-2.525-.318-.466-.633-.932-.953-1.394-.167-.243-.317-.5-.474-.741s-.329-.5-.478-.75l-.918-1.533c-.317-.525-.6-1.071-.9-1.6-.634-1.218-1.26-2.437-1.817-3.694-.325-.725-.641-1.449-.946-2.184-.263-.639-.511-1.286-.759-1.93C44.767,178.466,44.476,177.682,44.233,176.886Zm31.036,23c-2,.466-4,.974-5.992,1.474a83.483,83.483,0,0,1-8.167-7.1q-2.349-2.318-4.574-4.756l-.109-.117.035.037-.073-.079c-.025-.029-.051-.057-.077-.085l-.029-.032-.016-.017-.025-.027.013.013q-1.181-1.293-2.315-2.628c-.819-.965-1.622-1.942-2.432-2.914-.8-.956-1.6-1.909-2.373-2.879-.762-.95-1.486-1.928-2.2-2.914q-.255-.353-.505-.706l.036.053-.039-.056-.015-.021.013.017c-.215-.308-.417-.625-.629-.936.151.175.286.362.44.533.849.949,1.723,1.868,2.613,2.776.84.861,1.726,1.677,2.6,2.5,1.866,1.762,3.739,3.51,5.669,5.2.922.808,1.879,1.579,2.844,2.344.92.727,1.856,1.443,2.81,2.128C66.818,194.6,71.03,197.271,75.269,199.881Zm18.321-59.72,0,0c.755,2.076,1.541,4.137,2.4,6.175.4.945.829,1.876,1.315,2.779,1.869,3.489,7.066,11.13,10.176,13.757a36.678,36.678,0,0,1-4.989-.665.933.933,0,0,0-.324-.516c-.009-.008-1.6-1.034-2.522-1.8a9.015,9.015,0,0,1-1.485-1.628,12.268,12.268,0,0,1-1.279-2.458q-.366-.825-.784-1.621c-.469-.891-.981-1.757-1.493-2.624-.527-.894-1.044-1.8-1.6-2.673s-1.149-1.73-1.758-2.571-1.244-1.658-1.85-2.5q-.567-.815-1.093-1.657c-.372-.6-.7-1.219-1.031-1.843-.515-1.007-.993-2.031-1.48-3.051q-.741-1.554-1.524-3.083c-1.017-1.994-2.052-3.985-3.162-5.929-.829-1.446-1.7-2.867-2.538-4.307q-1.245-2.129-2.4-4.306c-.507-1-.986-2-1.43-3.027-.432-1-.837-2.005-1.25-3.008-.888-2.159-1.8-4.3-2.821-6.4-3.214-6.609-14.6-23.883-13.478-22.106-.145-.209-.291-.416-.438-.624-.848-1.208-1.735-2.387-2.634-3.556-.459-.595-.924-1.184-1.379-1.781-.409-.536-.8-1.085-1.19-1.635-.626-.9-1.235-1.814-1.865-2.712-.664-.949-1.346-1.884-2.061-2.8s-1.433-1.776-2.169-2.649-1.493-1.745-2.225-2.63c-.715-.864-1.4-1.745-2.05-2.661-.4-.594-.766-1.209-1.113-1.837.165.068.335.124.5.2,1.062.523,2.079,1.123,3.1,1.718,1.05.613,2.108,1.208,3.2,1.748.109.054.219.107.33.16.216.127.462.218.681.319.274.127.557.233.84.339a7.8,7.8,0,0,0,2.649.471A7.331,7.331,0,0,0,52.9,67a10.8,10.8,0,0,0,1.644-.466c.934-.353,1.823-.811,2.749-1.184.3-.107.608-.209.915-.308.325-.106.663-.18,1-.257A19.643,19.643,0,0,1,61.2,64.5c.72-.046,1.436-.064,2.158-.04a19.652,19.652,0,0,1,2.149.27,39.207,39.207,0,0,1,4.1,1.122c1.146.381,2.28.8,3.418,1.2a.8.8,0,0,0,1.276.437c.57.193,1.142.385,1.718.556.594.177,1.194.33,1.786.514q.276.094.543.215c.325.164.638.347.946.54.954.635,1.81,1.392,2.711,2.1a11.03,11.03,0,0,0,1.553,1.016,8.9,8.9,0,0,0,1.791.756,10.452,10.452,0,0,0,1.879.381,17.844,17.844,0,0,0,2.028.094,28.034,28.034,0,0,0,3.882-.331c.234-.038.465-.1.7-.141a1.135,1.135,0,0,0,.012.218c.021.155.049.307.081.46.109.537.241,1.07.376,1.6.3,1.19.637,2.37.966,3.554q.812,2.928,1.492,5.895c0,.022.01.044.014.066l.034.153c.271,1.25.511,2.508.744,3.766s.465,2.54.679,3.814c.417,2.472.794,4.948,1.155,7.428.182,1.251.352,2.5.522,3.755s.347,2.529.505,3.8c.108.873.2,1.748.273,2.623.008.1.017.2.024.3.2,2.482.335,4.968.483,7.454.15,2.509.307,5.019.488,7.527.071.986.142,1.971.224,2.954v-.006l0,.039,0,.031.021.27v-.007l0,.03,0,.04v-.006c.063.774.132,1.548.2,2.323.071.814.143,1.628.23,2.44a.481.481,0,0,0,.957-.076c-.081-1.28-.19-2.559-.282-3.837q-.138-1.875-.258-3.75c-.158-2.5-.306-4.99-.461-7.484q-.122-1.932-.239-3.863c-.073-1.229-.14-2.457-.223-3.685-.173-2.553-.463-5.1-.8-7.633-.328-2.488-.695-4.97-1.071-7.451-.381-2.519-.782-5.036-1.218-7.547-.207-1.194-.432-2.385-.692-3.571l0,.018-.036-.166c.007.029.012.058.019.087l-.02-.091,0,.014-.01-.043-.009-.045,0,.012c-.274-1.249-.585-2.491-.915-3.725s-.7-2.443-1.075-3.657c-.354-1.151-.7-2.3-1.113-3.438a5.585,5.585,0,0,0-.278-.634,1,1,0,0,0-.081-.1c.785-.175,1.568-.365,2.348-.555l-.129.028.152-.034.341-.074-.021,0,.022,0,.072-.016-.047.01a9.846,9.846,0,0,1,1-.143c.259-.015.516-.021.776-.014.2.015.4.037.6.068.218.045.433.1.647.161.257.091.507.193.754.306q.336.174.658.371c.352.235.689.487,1.016.755.238.21.477.417.7.638.277.267.543.543.809.821a29.111,29.111,0,0,1,1.94,2.4,23.109,23.109,0,0,1,1.2,2.007c.292.567.584,1.135.9,1.689a9.083,9.083,0,0,0,.723,1.049c.449,5.145,1.244,7.467.939,17.849-.1,3.526-.3,7.05-.347,10.578s.064,7.069.294,10.594c1.139,17.429,5.192,25.8,9.132,41.377-.244.037-.489.068-.734.1-13.4-17.045-13.327-47.28-13.7-52.825q-.124-1.83-.271-3.659v.027c-.011-.145-.023-.29-.034-.435v.02c-.154-1.925-.337-3.847-.536-5.768-.208-2-.431-4-.69-6s-.535-3.965-.853-5.94c-.31-1.93-.649-3.854-1-5.774q-.45-2.44-.94-4.87c-.159-.794-.322-1.59-.478-2.385-.078-.394-.155-.788-.226-1.183-.046-.255-.081-.511-.125-.765a.413.413,0,0,0-.413-.381.44.44,0,0,0-.051,0,.409.409,0,0,0-.352.4v.011h0c0,.078,0,.154.009.231.015.234.044.467.076.7.064.463.144.922.223,1.382.159.937.332,1.872.5,2.807q.525,2.9,1.014,5.8c.318,1.887.648,3.773.918,5.667.284,2.011.531,4.028.77,6.043.337,2.839.576,5.688.81,8.537.152,1.947.275,3.9.383,5.846.11,1.969.178,3.939.242,5.909.758,23.126,6.9,39.09,12.53,46.778-2.212.078-4.428-.023-6.606-.154a.681.681,0,0,0-.29-.785,25.99,25.99,0,0,1-2.13-2.265,86.552,86.552,0,0,1-5.435-7.051q-.326-.456-.649-.914l.028.041-.208-.3,0,0a37.375,37.375,0,0,1-2.421-3.9c.017.03.032.061.048.091l-.224-.427c-.468-.913-.893-1.848-1.3-2.789-.438-1.014-.869-2.031-1.283-3.055-.815-2.014-1.583-4.045-2.381-6.065q-.59-1.487-1.157-2.98c-.4-1.062-.8-2.125-1.23-3.177-.8-1.962-1.722-3.866-2.678-5.753q-1.491-2.94-2.993-5.873c-.507-.993-1.009-1.991-1.484-3q-.7-1.488-1.368-2.994c-.883-1.987-1.751-3.979-2.71-5.93-.944-1.92-1.984-3.79-3.058-5.64q-1.674-2.882-3.422-5.717c-.574-.928-1.131-1.863-1.68-2.806-.54-.927-1.059-1.866-1.594-2.8a59.14,59.14,0,0,0-3.576-5.517c-1.3-1.784-2.721-3.48-4.077-5.223-.48-.617-.939-1.249-1.391-1.886-1.042-1.521-2.024-3.082-3.011-4.642-.489-.774-.977-1.549-1.479-2.315q-.37-.564-.751-1.123c-.224-.325-.46-.642-.687-.964-.007-.011-.014-.021-.02-.032l.007.012,0,0a.237.237,0,0,1,.015.028h0a.371.371,0,0,0-.381-.211.387.387,0,0,0-.092.027.361.361,0,0,0-.184.474,2.064,2.064,0,0,0,.215.334q.234.334.464.672c.3.44.589.887.878,1.333.575.885,1.135,1.78,1.7,2.673,1.162,1.854,2.311,3.724,3.632,5.47.892,1.178,1.821,2.325,2.74,3.483.866,1.092,1.7,2.212,2.5,3.349.605.879,1.2,1.761,1.756,2.675.586.966,1.147,1.947,1.7,2.933.543.966,1.09,1.93,1.652,2.886.534.908,1.09,1.8,1.639,2.7.826,1.353,1.625,2.721,2.413,4.1.824,1.437,1.629,2.881,2.4,4.347h0l.02.04-.018-.035c.962,1.883,1.851,3.8,2.692,5.739.87,2,1.72,4.019,2.666,5.99.954,1.989,1.956,3.956,2.928,5.936.953,1.945,1.94,3.875,2.791,5.868.569,1.327,1.095,2.668,1.591,4.025l-.011-.03q.219.6.437,1.21l.325.9c.013.033.024.065.037.1.016.052.036.1.054.154.614,1.674,1.238,3.343,1.849,5.016.016.046.033.09.049.135l.054.15h0l.026.074-.022-.061.063.173.016.043Zm30.763,20.818a13.62,13.62,0,0,1-3.489,1.494c-3.392-13.85-6.582-20.061-8.714-35.668-.574-4.212-.784-7.072-.974-11.13-.262-5.663-.064-10.495-.01-15.937a92.706,92.706,0,0,0-1.146-16.189c5.721,5.618,12.924,1.179,15.023.95a1.691,1.691,0,0,1,.4.022,1.372,1.372,0,0,1,.3.1,1.5,1.5,0,0,1,.212.137,1.629,1.629,0,0,1,.291.323,2.809,2.809,0,0,1,.3.6,7.475,7.475,0,0,1,.375,2.115,28.828,28.828,0,0,1-.516,5.2,59.491,59.491,0,0,1-2.745,9.357,21.2,21.2,0,0,0-1.753,6.376c-.163,1.574-.388,5.291-.528,7.032-.16,1.967-.419,3.9-.47,7.271a71.938,71.938,0,0,0,.923,11.112,41.8,41.8,0,0,0,2.48,10.677c2.279,5.712,5.978,10.527,1.7,14.908-1.868-12-6.847-21.087-8.117-36.021-.334-4.381-.267-7.368-.426-17.647-.055-3.548-.164-8.106-.344-11.65-.014-.26-.144-2.242-.138-2.418a.372.372,0,0,0-.733-.1,12.008,12.008,0,0,0,.011,1.778c.056,1.274.131,3.9.161,6.488.077,6.686.089,11.423.078,13.368-.045,9.064-.275,13.119,1.877,22.988.863,3.956,1.575,6.451,2.108,8.408C124.234,158.68,124.353,160.979,124.353,160.979Zm9.953-14.272c3.221-9.609,1.747-6.579,5.11-25.958.462-2.663.934-5.326,1.3-8,.392-2.834.657-5.684.825-8.541.023-.378.044-.755.065-1.133v.012l0-.052,0-.051v.009c0-.029.012-.186.009-.161,0-.035.01-.223.01-.19l0-.044,0-.058,0,.025,0-.063c0,.033,0,.068-.006.1.155-2.814.231-5.64.142-8.456-.029-.929-.07-1.861-.15-2.786-.039-.448-.077-.893-.127-1.338-.047-.414-.1-.827-.142-1.242,0-.013,0-.026,0-.038a.385.385,0,0,0-.286-.364.383.383,0,0,0-.449.226,1.257,1.257,0,0,0-.041.387c-.006.151-.009.305-.01.456,0,.333,0,.667.008,1,.012.724.021,1.448.022,2.173,0,1.424-.037,2.848-.1,4.27-.011.232-.024.465-.034.7,0,.044,0,.088-.007.131l-.006.109c0,.04,0,.08-.007.12l-.006.1,0,.068c-.177,2.8-.393,5.595-.679,8.384q-.215,2.1-.485,4.188c-.179,1.374-.4,2.742-.625,4.11-.839,5.041-1.192,6.411-2.1,12.022-.315,1.925-.547,3.474-1.186,7.73-.14.932-.747,4.41-.6,3.7-.018.1-.04.211-.033.171-.048.263-.088.47-.039.208a72.3,72.3,0,0,1-2.514,8.7c.06-.18.044-.129-.017.054-.069.213-.422,1.274-.728,2.173-.13.38-.722,2.067-.8,2.375a.853.853,0,0,0,.286.866l-.23.465a11.8,11.8,0,0,0-.808-2.695,73.119,73.119,0,0,0,.548-10.786,71.676,71.676,0,0,1,.945-12.39,38.637,38.637,0,0,0,.673-7.494c.033-2.593.019-5.192.154-7.781.013-.223.026-.447.038-.67.183-2.5.575-4.972.849-7.462.276-2.533.44-5.076.7-7.61.136-1.308.3-2.615.542-3.909.118-.557.254-1.105.419-1.651.148-.426.313-.843.5-1.256.177-.352.365-.694.568-1.032.14-.206.285-.406.438-.6.132-.15.269-.294.412-.436.131-.112.265-.219.4-.322s.286-.177.433-.259q.3-.146.619-.268c.84-.281,1.716-.428,2.563-.691.969-.3,1.886-.734,2.835-1.091a28.751,28.751,0,0,0,2.725-1.044,17.526,17.526,0,0,0,1.557-.824,10.549,10.549,0,0,0,1.368-.934c1.321-1.105,2.653-2.189,4.022-3.228-.091.857-.163,1.522-.534,3.477V82.3l-.013.071c-.467,2.454-1.04,4.885-1.557,7.329s-1.04,4.861-1.593,7.286c-.277,1.209-.554,2.417-.839,3.624-.29,1.239-.613,2.471-.921,3.706-6.694,26.853-2.541,21.964-7.823,33.253.038-.091-.163.317-.207.406a16.207,16.207,0,0,0,.524-2.472c.02-.1.045-.232.024-.129l.035-.185c.514-2.695,1.01-4.539,1.591-6.568.687-2.4,1.131-4.022,1.71-6.9.03-.151.155-.8.125-.652.011-.058.024-.127.035-.188.4-2.13.851-5.195,1.093-7.323.293-2.584.491-5.176.713-7.766.219-2.566.449-5.131.623-7.7.034-.491.067-.983.091-1.476l0,.075c.009-.165.017-.328.026-.494l0,.038a47.976,47.976,0,0,0-.186-7.832c-.05-.453-.114-.9-.186-1.352-.034-.216-.07-.43-.108-.646a1.1,1.1,0,0,0-.156-.518.382.382,0,0,0-.351-.133.345.345,0,0,0-.237.144.755.755,0,0,0-.091.458c0,.2.021.407.038.608l0-.059.009.109c.036.448.08.9.123,1.343.077,1.115.129,2.229.158,3.348s0,2.228-.049,3.343c-.091,1.323-.183,2.646-.311,3.967-.124,1.279-.267,2.556-.409,3.834-.285,2.579-.541,5.159-.855,7.736q-.231,1.893-.524,3.78c-.191,1.229-.381,2.459-.591,3.685-.139.811-.331,1.869-.422,2.351.029-.153.025-.138,0,0-.644,3.376-1.116,4.994-1.665,7.019-.434,1.589-.75,2.791-1.282,5.621.031-.173.016-.095-.015.073-.026.138-.024.131,0,0,0,.01-.136.715-.231,1.217-.035.178-.031.158-.006.035-.01.051-.042.216-.043.219.006-.03-.018.095,0,.021,0-.022-.016.084-.006.034-.184.967-.406,2.142-.617,3.071a25.114,25.114,0,0,1-1.641,4.98c-.012.025-.011.022,0,0-.171.356-.524.9-.47,1.253C134.678,146.048,134.84,145.871,134.306,146.707Zm15.2-77.96c-.094,1.757-.148,3.516-.241,5.271a29.022,29.022,0,0,1-.362,3.534c-.047.245-.1.488-.126.737a1.139,1.139,0,0,0,.02.28,15.989,15.989,0,0,1-2.222,1.709c.054-2.523-.032-5.006-.163-6.641l0,.029a4.759,4.759,0,0,0-.086-.674.384.384,0,0,0-.753.112c.018.243.017.489.024.733.012.4.023.8.028,1.206.023,1.561-.14,3.788-.14,3.788-.124,2.441-.045.965-.089,2.073a11.51,11.51,0,0,1-1.873.748c.107-1.435.116-1.713.115-1.691,0-.026,0-.085,0-.085v0a55.7,55.7,0,0,0-.121-5.764c-.025-1.032,0-2.064.013-3.1.012-1.006.035-2.011.052-3.017.036-2.141.012-4.282-.155-6.417l-.022-.287c-.036-.435-.081-.87-.129-1.3-.023-.192-.043-.384-.065-.576-.017-.147-.045-.293-.06-.44v.011a.38.38,0,1,0-.752.109l0-.008c.015.083.018.172.028.256.018.162.04.322.059.485.041.345.074.692.1,1.039.159,2.115.157,4.241.147,6.362-.01,2.064-.071,4.13-.1,6.194-.066,5.609.062,2.432-.533,8.723-4.6,1.768-6.224,1.558-8.033,3.828.095-.9.351-3.274.369-4.275h0c0-.019,0-.065,0-.048.115-2.007.132-3.334.1-5.473-.026-1.734-.073-3.468-.1-5.2,0-.2-.007-.4-.009-.606a.456.456,0,0,0-.456-.446c-.02,0-.04,0-.06,0a.456.456,0,0,0-.386.451c.012.907.019,1.813.033,2.719.011.887.034,1.775.053,2.663.11,5.1-.063,3.463-.052,5.405h0c0,.09-.018.322-.026.474l-.04.651c-.122,1.9-.307,3.889-.477,5.316a13.868,13.868,0,0,0-1.147,3.229,77.146,77.146,0,0,0,.583-16.751c-.129-2.151-.3-4.3-.472-6.452-.012-.142-.024-.286-.035-.429l0,.055-.018-.228c0,.018,0,.036,0,.056,0-.067-.01-.132-.015-.2-.066-.812-.137-1.622-.2-2.434,0-.05-.007-.1-.012-.149s-.008-.107-.013-.161l-.014-.171,0,.055c-.017-.225-.036-.45-.054-.675-.016-.2-.032-.393-.049-.589a.407.407,0,0,0-.407-.346.438.438,0,0,0-.051,0,.407.407,0,0,0-.351.407c.088,1.329.221,2.655.329,3.982v-.024c.012.17.026.339.039.508l0-.055c.007.086.014.173.02.259l0-.055c.008.107.016.212.025.319q.183,2.4.323,4.8c.095,1.6.162,3.2.19,4.8q.025,1.485-.015,2.971c-.026,1-.054,2-.106,3,0,.065-.007.129-.011.194-.044.777-.1,1.554-.163,2.33-.069.8-.158,1.595-.244,2.393-.178,1.625-.425,3.241-.638,4.862-.118.887-.2,1.778-.246,2.672-.077,1.437-.1,2.874-.113,4.312-.011,1.547-.015,3.094-.078,4.639-.007.194-.017.389-.028.583l0-.038-.008.135c-.089,1.576-.2,3.15-.317,4.724-.114,1.551-.23,3.1-.308,4.656-.325,6.571.118,9.942-.428,13.872.017-22.64-.232-21.607-.033-25.312v.011q.085-1.471.218-2.938a.484.484,0,0,0-.415-.531.48.48,0,0,0-.531.416c-.065.65-.12,1.3-.174,1.956-.056.679-.109,1.357-.145,2.036l0-.066c-.115,2.031-.128,4.069-.091,6.1.037,2.071.1,4.14.079,6.211-.2,21.157.108,27.225.108,27.225a150.773,150.773,0,0,1-1.285-27.008l0-.052c0-.057,0-.113.009-.17,0,.029,0,.056,0,.084l.009-.175q.06-1.068.135-2.135c.048-.7.107-1.4.144-2.094.008-.134.014-.269.02-.4a.607.607,0,0,0-.534-.6.589.589,0,0,0-.157,0,.61.61,0,0,0-.519.527c-.08.788-.127,1.578-.182,2.367-.054.757-.114,1.515-.154,2.273v-.023l0,.047v.02a128.874,128.874,0,0,0,.19,16.127c-.049-.421-.489-4.338-.427-3.921-.272-3.449-.578-7.763-.547-11.332.009-.99.026-1.981.079-2.968,0-.054.006-.107.008-.16l0,.034,0-.05,0-.032v.019c.056-.869.123-1.735.228-2.6.112-.909.269-1.812.376-2.721a.5.5,0,0,0-.37-.541.46.46,0,0,0-.192-.009.5.5,0,0,0-.315.2c.042-.312.077-.625.132-.937.113-.532.248-1.057.41-1.577.35-1.034.749-2.049,1.138-3.068q.651-1.711,1.22-3.452a53.667,53.667,0,0,0,1.811-7.049c.134-.735.247-1.479.324-2.222a14.606,14.606,0,0,0,.1-2.585c-.033-.438-.067-.875-.133-1.309a7.166,7.166,0,0,0-.87-2.6,4.273,4.273,0,0,0-.911-1.063c-1.819-1.559-3.727-.847-5.82-.194A122.031,122.031,0,0,0,119.224,62.1c.038.148-.164-.727-.119-.554-.139-.635-.094-.434-.127-.584h0a.617.617,0,0,1-.019-.09l-.015-.067h0c-.009-.039-.031-.14-.041-.183.016.06-.446-1.95-.927-5.354.2-.01,11.732-.447,12.241-.428,1.11.076,2.212.217,3.311.394,1.223.2,2.446.448,3.679.57a9.465,9.465,0,0,0,7.13-2.362l.129-.119a18.05,18.05,0,0,0,2.43-2.915A22.339,22.339,0,0,0,148.959,47a16.194,16.194,0,0,0,.635-1.581q.163.657.312,1.318v0c.012.052.023.1.035.157-.008-.037-.017-.073-.025-.11a27.789,27.789,0,0,1,.514,3.421,46.879,46.879,0,0,1,.007,5.341C150.169,59.952,149.74,64.342,149.508,68.747Zm-6.8-18.458c-.028.037-.051.077-.08.114,0-.026.008-.053.013-.079A.532.532,0,0,0,142.7,50.289Zm-3.259,2.328-.036.016c-.073.022-.147.039-.22.06,0-.049,0-.1.007-.147.027.006.047.029.074.033.053.006.1-.028.158-.033C139.433,52.57,139.44,52.593,139.445,52.617Zm-2.018-8.24c0-.187,0-.374,0-.562.008.139.015.278.022.416C137.443,44.28,137.434,44.329,137.427,44.377Zm-.142-7.541c0-.213-.01-.426,0-.639.018-.252.039-.5.076-.754.024-.111.052-.22.083-.329.022-.058.045-.115.069-.172.048-.09.1-.179.15-.267.024-.033.049-.066.074-.1.041-.045.082-.089.126-.131.086-.074.173-.145.262-.216.11-.073.22-.142.332-.21s.232-.11.351-.161c.178-.061.356-.114.539-.161.274-.051.548-.089.825-.116.38-.021.758-.026,1.138-.015a14.245,14.245,0,0,1,1.511.192c.373.075.742.163,1.106.274.166.059.328.123.49.194s.321.173.476.269c.2.139.389.284.576.437.108.095.208.2.312.3l-.01,0a.428.428,0,0,0-.188.08.588.588,0,0,0-.183.306,3.461,3.461,0,0,0-.09.416c-.045.258-.081.517-.114.777-.071.546-.115,1.1-.151,1.647-.021.324-.018.648-.033.972-.018-.155-.027-.31-.047-.464-.135-1.083-.28-2.167-.5-3.237-.029-.153-.063-.306-.095-.457l.012.058c-.013-.06-.027-.12-.04-.18l0,.01-.014-.065a1.009,1.009,0,0,0-.126-.4.391.391,0,0,0-.316-.148.308.308,0,0,0-.051,0,.362.362,0,0,0-.264.157.533.533,0,0,0-.081.264.626.626,0,0,0,0,.075c0,.109,0,.218.007.327.006.264.01.528.02.791.018.544.046,1.086.079,1.628.01.164.027.328.037.493a.737.737,0,0,0-.1.256c-.007.037-.006.075-.011.112-.016-.35-.024-.7-.061-1.048-.032-.292-.046-.693-.418-.746a.375.375,0,0,0-.111,0,.481.481,0,0,0-.36.336,2.876,2.876,0,0,0-.112.625c-.025.2-.031.405-.044.608a.521.521,0,0,0-.342.37c-.019-.22-.042-.44-.067-.66a4.021,4.021,0,0,0-.075-.5.4.4,0,0,0-.454-.281.35.35,0,0,0-.249.155l-.047.081a1.161,1.161,0,0,0-.072.351c-.018.184-.029.367-.039.55-.008.148-.009.3-.016.445a.469.469,0,0,0-.4.463c-.008,1.86.037,3.719,0,5.579-.012.55-.04,1.1-.063,1.652-.037-.714-.086-1.427-.132-2.14-.054-.837-.106-1.676-.164-2.514,0-.007-.008-.011-.008-.018-.022-.382-.043-.764-.074-1.146q-.1-1.218-.244-2.433-.066-.556-.156-1.108a5.127,5.127,0,0,0-.185-.867.448.448,0,0,0-.379-.348.481.481,0,0,0-.114,0,.467.467,0,0,0-.381.351,2.719,2.719,0,0,0-.059.69v.01a.377.377,0,0,0-.156-.057.455.455,0,0,0-.053,0,.417.417,0,0,0-.354.413c0,.325.039.65.066.973l0-.032c.007.086.012.173.021.259l-.006-.062c.083,1.053.145,2.107.194,3.161a.391.391,0,0,0-.095-.072c-.037-.641-.068-1.283-.12-1.924v.005c-.041-.54-.094-1.08-.155-1.619-.031-.256-.067-.511-.11-.764a1.88,1.88,0,0,0-.089-.347.426.426,0,0,0-.453-.262A.392.392,0,0,0,137.285,36.836Zm9.45-.483c.21.308.41.623.591.95.112.228.211.461.3.7l.008.02a1.955,1.955,0,0,0-.446.7,7.4,7.4,0,0,0-.333,1.861c-.043.537-.115,1.069-.209,1.6-.078.39-.192.77-.29,1.154.021-.846.042-1.692.043-2.538,0-1.567.018-3.144-.11-4.707l0-.058v0h0c-.008-.1-.018-.191-.031-.286C146.42,35.946,146.584,36.143,146.735,36.353ZM112.008,56.876c-.29,8.09,1.54,13.141,2.8,26.291-.044-.012-.2-.063-.241-.077-.011-.109-.022-.218-.032-.327-.021-.216-.04-.431-.061-.648-.132-1.414-.3-3.023-.516-4.426-.086-.551-.975-5.7-1.049-6.1-.1-.553-.183-.936-.232-1.125-.058-.225-.193-.375-.417-.342-.385.057-.333.416-.293.788.046.486.233,1.8.3,2.314.183,1.383.335,2.53.447,3.885,0,0,.007.084.008.091-.038-.384.057.784.087,1.171,0,0,.112,1.425.144,1.822,0-.01.023.255.014.175l.007.09v0c.063.785.077.977.165,1.979-.067-.04-.136-.077-.2-.119a8.008,8.008,0,0,1-1.247-1.1,22.867,22.867,0,0,1-2.258-3.726,22,22,0,0,0-4.885-5.851,9.278,9.278,0,0,0-4.661-2.113,11.306,11.306,0,0,0-4.412.514c-.694-4.407-1.044-7.189-1.669-10.037C107.619,60.116,108.031,59.791,112.008,56.876ZM87.462,44.813v0c0,.011.015.185.016.2l0-.012c.007.084.013.167.021.252h0c0,.02,0,.016,0,.016.019.258.035.515.053.773-.042-.356-.083-.711-.124-1.067a4.485,4.485,0,0,0-.089-.867s.006.16-.2-1.6c-.072-.627-.146-1.254-.218-1.88a.4.4,0,1,0-.781.145.332.332,0,0,0-.207-.053c-.478.071-.26.692-.112,1.174a.3.3,0,0,0,.468.171q.22,1.889.438,3.778s.058.45-.182-1.367a.424.424,0,0,0-.844.019A44.9,44.9,0,0,0,84.2,36.966c.54-.063.291-1.036-.235-.761-.565-1.875-.409-1.335-.989-3.156C87.267,37.782,87.245,42.133,87.462,44.813ZM60.5,56.637l.009.032a.4.4,0,0,0-.359.48.613.613,0,0,1-.009-.069c-.009.108-.01.217-.01.325-.062-.2-.354-1.093-.3-.906-.008-.023-.017-.045-.026-.067C60.034,56.5,60.265,56.567,60.5,56.637Zm-6.16-.109c.129-.039.26-.071.389-.109,0,.008.854,4.959,1.146,6.812-.048.021-.1.04-.144.062C55.251,60.848,54.753,58.075,54.336,56.528Zm4.386,5.826-.162.035c-.051-.524-.053-.512-.1-.906C58.54,61.775,58.627,62.066,58.722,62.354Zm-.971.213c-.071-.27-.146-.539-.219-.809a.508.508,0,0,0,.135-.236c.048.352.115.881.137,1.033C57.787,62.56,57.768,62.562,57.751,62.567ZM57,62.793c-.128.044-.257.082-.384.13-.22-1.475-.063-.5-.5-3.3C56.354,60.5,56.745,61.916,57,62.793Zm-.309-6.736c.06,0,.118,0,.178,0,.077.764.244,1.774.37,2.573C57.014,57.5,57.057,57.617,56.693,56.057Zm.988.01c.059.006.118.017.177.024a8.808,8.808,0,0,0,.559,1.891.35.35,0,0,0-.422.047C57.888,57.308,57.812,56.779,57.681,56.067Zm3.992-37.946c.044.286.093.572.151.855.138.683.309,1.358.485,2.031.346,1.31.769,2.6,1.2,3.883.442,1.316.9,2.626,1.337,3.944a49.972,49.972,0,0,1,1.4,5.051,39.232,39.232,0,0,1,.74,5.277c.273,3.492.225,6.79.608,11.673,0,0-.007-.077.006.088l0,.018v0a53.787,53.787,0,0,0,1.109,7.713,35.517,35.517,0,0,0,1.381,4.837h0c-.036-.1-.037-.1,0,0-.951-.315-1.252-.452-2.765-.843-.086-.579-.267-1.2-.4-1.769-.335-1.4-.781-3.5-1.061-4.585-.022-.087-1.285-4.653-1.581-5.738a26.8,26.8,0,0,1-1.064-5.4c-.422-3.422-.481-4.927-1.127-9.68-.7-5.138-1.52-7.75-3.114-13.431-.266-.946-.512-1.9-.726-2.856-.149-.745-.278-1.49-.36-2.245-.017-.279-.027-.557-.021-.836.011-.138.026-.274.048-.41.022-.022.028-.055.048-.079A8.991,8.991,0,0,0,61.673,18.121Zm1.031.456a14.356,14.356,0,0,1,4.817,2.868c.016.112.02.226.039.338.17,1.026.772,3.964,1.227,6.362.479,2.546.915,5.877,1.156,8.387.421,4.358.558,7.091,1.945,16.653.367,2.543.54,3.436.812,4.783.058.292.118.588.195.877-1.178,1.784-.83,3.536-.484,5.427-.149-.052-.3-.1-.448-.152a2.7,2.7,0,0,0-.245-1.315c-.18-.589-.682-2.436-.787-2.847-.412-1.6-.776-3.526-1.027-5.154-.315-2.043-.377-2.788-.475-3.877-.028-.313-.21-2.514-.191-2.218,0-.048-.006-.077-.01-.121l0,.026-.007-.095,0,.023,0-.049c-.005-.064-.008-.1,0-.04,0,.036-.007-.1,0-.012,0-.07,0-.063-.009-.12-.176-2.271-.325-5.377-.539-8.034l0-.044v0l0-.018c.015.13-.135-1.9-.49-4.086a52.812,52.812,0,0,0-2.618-9.34c-.959-2.655-1.7-4.39-2.52-7.091C62.921,19.336,62.813,18.956,62.7,18.577ZM74.365,64.949c-.012-.087-.027-.174-.041-.261a19.942,19.942,0,0,1-.36-3.189,3.868,3.868,0,0,1,.178-.9,2.842,2.842,0,0,1,.277-.585,2.425,2.425,0,0,1,.38-.449,3.334,3.334,0,0,1,.641-.447,4.947,4.947,0,0,1,1.133-.407,10.8,10.8,0,0,1,2.879-.2c.407.029.81.083,1.214.129a.462.462,0,0,0-.084.44c.023.2.119.85.15,1.05.354,2.3.413,2.446.744,4.34.112.633.478,2.6.712,3.912A10.131,10.131,0,0,0,78,66.086c-.084-.623-.163-1.246-.242-1.87-.033-.259-.321-2.561-.357-2.82-.032-.215-.041-.365-.232-.481a.385.385,0,0,0-.431.036c-.274.234-.055,1.364-.011,1.734.115.957.27,2.15.422,3.148C75.513,65.369,75.907,65.483,74.365,64.949Zm13.1-7.447c-.178-.022-.356-.042-.533-.066a.34.34,0,0,0,.052-.3c-.153-1.293-.413-3.654-.695-6.078-.019-.29-.172-2.515-.157-2.258-.009-.125-.017-.206-.006-.08,0-.043-.007-.12-.007-.079-.1-1.192-.089-1.052-.2-2.184C86.511,50.922,87.118,55.611,87.466,57.5Zm5.339,13.155a19.387,19.387,0,0,1-6.033.244c0-.018-.011-.044-.006-.03-.167-.779-.311-1.563-.458-2.346-.161-.853-.323-1.705-.5-2.556-.387-1.886-.66-3.265-1.185-5.669a2.8,2.8,0,0,0-.216-.723.364.364,0,0,0-.613.091,1.571,1.571,0,0,0,.017.582c.081.59.219,1.362.325,1.943.654,3.577.573,3.207.931,5.265.217,1.247.326,1.9.578,3.128l-.02-.008c-.325-1.895-.565-3.384-1.121-5.9.1.379-.717-3.289-1.489-5.7a39.79,39.79,0,0,0,7.916.985C91.247,61.861,92.206,66.739,92.805,70.657Zm-8.3-.594a4.453,4.453,0,0,1-1-.674c-.04-.217-2.078-10.485-2.181-10.681.249.034.5.078.745.117C83.228,63.492,83.657,65.123,84.509,70.063ZM69,22.894c.761.791,1.114,1.206,1.93,2.158.133,1.174.9,4.25,1.146,5.405-.01-.041,0,.017.012.058-.037-.137.1.429.034.156,1.522,7.312.991,9.06,2.051,22.344,0-.041.006.057,0,.016a26.417,26.417,0,0,0,.607,4.191,5.464,5.464,0,0,0-.513.3C72.643,49.326,72.605,36.231,69,22.894Zm5.078,12.589c-.127-1.051-.295-2.095-.493-3.135-.424-2.22-.929-4.1-1.389-5.977a19.257,19.257,0,0,0,6.7,4.02c0,.1.01.19.014.258.078,1.4.431,3.575.656,4.957.435,2.687.806,4.667,1.022,7.273.31,4.031.235,9.183.406,13.169.007.153.016.307.024.46-.163-.019-.584-.03-.763-.043-.006-.6,0-.825-.006-1.4-.013-2.151-.075-2.336-.065-5.62a.376.376,0,1,0-.751.008c0,.809,0,1.618,0,2.427,0,1.481-.031,2.379.045,4,.008.181.021.362.033.543-.19-.007-.8-.007-.918,0-.047-.9-.034-.53-.087-1.772l-.335-8.056c-.013-.44.009-.846-.461-.839a.444.444,0,0,0-.437.447c.031,1,.136,4.876.164,5.427.082,1.554.128,2.519.272,4.129.053.588.046.389.086.73a6.95,6.95,0,0,0-1.942.314c-.027-.1-.054-.206-.078-.31-.418-1.933-.589-3.8-.945-10.15-.12-2.137-.259-5.525-.424-7.493,0,0-.007-.086-.011-.142C74.411,38.913,74.3,37.289,74.082,35.483Zm5.9-4.629a10.54,10.54,0,0,1,1.774,1.078c.972,5.062,3.013,6.24,4.053,25.331-.087-.014-.175-.025-.262-.04-.061-.728-.134-1.455-.2-2.181-.225-2.351-.379-3.96-.833-7.531-.494-3.887-.843-6.776-1.243-9.628-.054-.388-.076-.758-.5-.694a.4.4,0,0,0-.334.474c-.425.133-.239.872.12.907.806,5.847,2.266,18.53,2.267,18.533l-.5-.089c.008-.092-.1-1.428-.109-1.521v.015c-.01-.132-.008-.111-.006-.07,0,0-.02-.281-.043-.557a2.617,2.617,0,0,0-.022-.277c.014.157,0-.041-.016-.2-.035-.459-.917-10.016-.942-10.288-.044-.481-.02-.977-.51-.905a.409.409,0,0,0-.339.458q.175,1.878.344,3.757c.036.449.216,2.472.285,3.263a.365.365,0,0,0-.338-.168.381.381,0,0,0-.316.426c.08.82.159,1.638.232,2.458.118,1.3.17,2.082.331,3.358-.274-.046-.551-.076-.826-.115C82.042,43.44,82.755,43.924,79.979,30.854ZM92.917,60c.237,2.284,1.282,8.386,1.567,10.287-.238.061-.477.119-.716.177-.788-5.082-1.415-8.148-1.963-10.472C92.175,60,92.546,59.993,92.917,60Zm23.552,23.267c0,.067.019.133.029.2-.124-.01-.248-.026-.371-.04q-.05-.669-.106-1.337c-.425-5-.876-7.641-1.2-9.536-.522-3.061-.7-3.83.614,2.161a44.531,44.531,0,0,1,.851,5.911c.009.094.029.34.036.426C116.472,82.97,116.384,82.045,116.469,83.265Zm-2.395-27.442c.018.541-.009.4.1,1.757v-.007c0,.031.015.2.015.2h0c.085,1.042.186,2.082.288,3.122s.231,2.1.386,3.139c.307,2.064.7,4.113,1.13,6.155.031.144.06.287.092.431l-.006-.029.135.625,0-.009c.225,1.044.187.847.165.76,0,.012.067.3.064.29.007.033,0,.006.007.032,0,0,.159.729.16.735A100.7,100.7,0,0,1,118.3,83.354c-.2.031-.391.07-.589.093a1.943,1.943,0,0,0,0-.229c-.009-.122-.021-.242-.032-.364-.019-.207-.041-.415-.061-.622q-.069-.73-.161-1.46c-.124-.972-.288-1.94-.457-2.905-.344-1.971-.865-3.909-1.342-5.85q-.124-.5-.237-1l.011.055-.025-.115c-.065-.31-.128-.622-.191-.934L115.1,69.5c-.022-.113-.053-.23-.068-.345a.4.4,0,0,0-.452-.373.387.387,0,0,0-.314.448,71.778,71.778,0,0,1-1.31-12.959A6.066,6.066,0,0,1,114.074,55.823Zm4.2,27.206s0,.039,0,0ZM117.132,55.3c0,.076,0,.151,0,.226.01.278.04.556.069.832.061.577.145,1.154.231,1.727.174,1.162.394,2.315.626,3.466.468,2.334.968,4.663,1.328,7.017.35,2.293.6,4.6.791,6.915V75.5l0-.027c0,.051.008.1.013.153v-.008c0,.038.017.219.019.241,0,0,.249,2.595.279,7-.345.095-.689.193-1.037.277q-.231-2.672-.72-5.314c-.215-1.166-.443-2.331-.7-3.489l-.011-.052-.048-.223v0c-.017-.08-.035-.16-.053-.24.006.025.011.05.017.074l-.033-.149,0,.017c-.017-.075-.033-.148-.049-.223,0,.025.011.05.016.075-.02-.094-.041-.188-.061-.281l0,.015-.129-.582c0,.024.011.048.016.072-.022-.1-.043-.2-.065-.3,0,.025.011.05.016.074-.018-.083-.037-.167-.055-.25l0,.018-.006-.031-.008-.037,0,.016-.011-.054,0-.019,0,.015-.036-.165,0-.008,0-.021v.007l-.052-.236c0,.017,0,0,0-.018l0,.006-.03-.134c.013.069-.022-.1-.037-.167.025.091.03.136-.018-.085.015.059-.036-.156-.022-.105-1.911-8.89-1.716-10.8-2.358-15.759A14.1,14.1,0,0,1,117.132,55.3Zm8.782,29.418c.04.033.046.041-.014-.009ZM52.073,57.085a62.4,62.4,0,0,1,1.484,7.159c-.1.036-.208.059-.311.091a72.944,72.944,0,0,0-1.378-7.216C51.936,57.107,52.005,57.1,52.073,57.085Zm-4.2.177c.207.016.414.032.621.044,0,.005,0,.048.089.537,0,.006-.011.01-.013.017a2.812,2.812,0,0,0,.047,1.194,30.751,30.751,0,0,0,.881,3.41,3.489,3.489,0,0,0,.344,1.181s-.012-.034.29.963l-.019-.005c-.051-.175-.109-.349-.176-.518-.36-.911-.465-1.191-.808-2.078a11.836,11.836,0,0,0-.628-1.5C48.273,59.371,48.1,58.559,47.873,57.262Zm3.04.013c.028,0,.056-.01.084-.013.457,2.188.583,2.261,1.447,7.309a.754.754,0,0,1-.18.043C51.884,62.244,51.417,59.529,50.913,57.275Zm-5.5,5.1-.115-.066a39.512,39.512,0,0,0-2.2-5.479c.2.017.41.036.614.054A39.736,39.736,0,0,0,45.408,62.374Zm-3.361-1.847c-.292-.144-.3-.132-.584-.256a22,22,0,0,1-.581-2.253c.044.167-.249-1.1-.31-1.336.095,0,.19.006.285.009C40.759,57.634,41.689,59.657,42.047,60.527Zm-2.072-1.771c-.127-.632-.3-1.257-.453-1.881-.015-.06-.032-.119-.048-.179l.178,0a16.266,16.266,0,0,0,.75,3.16,20.664,20.664,0,0,1-1.951-.75c.334-.357-.054-1.839-.176-2.312.076-.011.152-.025.229-.034.018.1.032.21.051.314a19.1,19.1,0,0,0,.417,1.906.515.515,0,0,0,1-.22Zm-3.254-1.614c.2-.066.4-.124.6-.178a8.462,8.462,0,0,0,.22,1.725c-.66-.337-1.319-.676-1.992-.986.069-.043.258-.172.33-.207A.494.494,0,0,0,36.721,57.142Zm1.407,9.69Q37.08,64.818,36.047,62.8c-.342-.669-.667-1.345-.992-2.021-.144-.3-.287-.6-.449-.888-.018-.032-.045-.064-.065-.1.173.075.352.138.524.219A26.764,26.764,0,0,0,39.1,61.84c.1,1.775,6.509,8.9,9.051,12.441l-.01-.015c1.627,2.322,12.266,16.634,20.131,31.255,1.064,2.055,2.041,4.158,2.941,6.29.873,2.067,1.665,4.165,2.573,6.217.447,1.007.943,1.995,1.459,2.967.541,1.018,1.092,2.029,1.665,3.028,1.153,2.009,2.364,3.986,3.454,6.033.112.21.223.422.333.634,1.033,1.993,2.059,3.993,3.013,6.026s1.826,4.13,2.965,6.077q.723,1.237,1.549,2.406c.561.8,1.137,1.582,1.7,2.377.393.56.781,1.126,1.148,1.705.786,1.241,3.029,5.072,3.751,6.57a94.774,94.774,0,0,1-6.618-8.228c-.653-.927-1.285-1.868-1.909-2.814-.59-.9-1.142-1.817-1.685-2.741-1.179-2.006-2.357-4.013-3.577-5.994-1.153-1.874-2.341-3.724-3.529-5.577q-.919-1.437-1.814-2.892c-.544-.893-1.071-1.8-1.6-2.7q-1.635-2.782-3.272-5.565c-1.131-1.917-2.3-3.813-3.44-5.722q-3.348-5.594-6.709-11.176c-4.322-7.158-18.57-28.06-22.548-35.614Zm38.934,67.923.065.123-.013-.026c.019.039.041.079.06.118ZM33.252,61.867v0c.016.045.033.089.049.135Zm-.433-1.473c-.02-.1-.033-.207-.049-.311a.87.87,0,0,0,.442-.158.854.854,0,0,0,.16-.169h0l.019-.028c.071-.1.154-.2.234-.3.046.013.092.023.137.037.065.023.126.055.19.079-.064.033-.137.054-.174.12a.469.469,0,0,0-.018.376c.062.217.157.428.236.638.194.5.405,1,.622,1.5.445,1.012.938,2,1.426,3,6.468,13.156,18.522,29.191,25.051,40q1.679,2.781,3.346,5.568,1.715,2.85,3.466,5.679c1.117,1.812,2.225,3.63,3.3,5.471,1.081,1.858,2.147,3.723,3.237,5.576,1.132,1.924,2.327,3.81,3.514,5.7,1.2,1.915,2.391,3.836,3.541,5.782,1.135,1.921,2.224,3.869,3.395,5.768.572.929,1.177,1.84,1.789,2.742q.963,1.416,1.981,2.795c.413.561.868,1.089,1.293,1.641-1.268-1.259-2.53-2.524-3.745-3.835-.771-.868-1.52-1.747-2.244-2.654-.69-.864-1.338-1.758-1.988-2.651-.856-1.229-1.7-2.463-2.49-3.738-.841-1.362-1.623-2.756-2.376-4.168-1.2-2.31-2.364-4.639-3.524-6.969-1.151-2.314-2.311-4.623-3.556-6.886-2.447-4.446-5.351-8.624-8.222-12.8q-2.172-3.159-4.4-6.279c-1.479-2.07-2.981-4.124-4.449-6.2-1.4-2-2.774-4.021-4.077-6.086-1.323-2.1-2.548-4.248-3.777-6.4-3.635-6.377-3.254-5.713-7.433-12.816-.964-1.64-1.913-3.291-2.8-4.972a30.633,30.633,0,0,1-1.616-3.572A14.963,14.963,0,0,1,32.819,60.394Zm9.523-3.629c-.246.495.831,3.342,1.021,3.864-.031-.07.257.685.284.757l-.148-.079c-.407-1.059-1.361-4.019-1.653-4.585C41.918,56.725,42.255,56.758,42.342,56.765Zm3.291.29a3.765,3.765,0,0,0,.157,1.471c-.238-.377-.707-.313-.777.206-.092-.273-.507-1.509-.585-1.787C45.222,57.022,44.611,56.948,45.633,57.055Zm1.425.147a9.352,9.352,0,0,0,.241,1.67c-.856.213.769,4.252,1.075,5.084-.494-.237-.279-.147-.715-.369-.013-.04-.02-.081-.033-.122a.37.37,0,0,0,.159-.391c-.128-.487-1.194-4.757-1.221-4.867-.14-.556-.134-.548-.261-1.083C46.554,57.151,46.806,57.178,47.058,57.2Zm3.075.106c.018.125.937,4.859,1.311,7.008q-.183-.681-.371-1.362c-.287-1.047-.593-2.086-.956-3.109-.169-.477-.469-1.27-.578-1.58-.027-.146-.156-.78-.187-.935C49.613,57.334,49.873,57.32,50.133,57.308Zm3.289-.528c.371,2.442.732,3.962,1.315,6.957-.124.057-.25.11-.375.165-.18-1.409-1.019-5.632-1.407-6.994C53.112,56.869,53.267,56.824,53.422,56.78Zm5.528-.546c.017.141,1.61,5.555,1.676,5.8l-.072.008c-.374-1.351-1.391-4.593-1.931-5.849C58.736,56.207,58.84,56.212,58.95,56.234Zm2.955.307c.114,1.443.555,3.723.78,5.122-.3-1.3-.9-3.673-1.311-4.934A1.792,1.792,0,0,0,61.905,56.541Zm51.654-45.662c.023,0,.043-.013.066-.014a10.708,10.708,0,0,0-.637,2.61,21.883,21.883,0,0,0,.094,4.71c.148,1.426.331,2.849.46,4.278.025.28.047.561.071.841l0-.038,0,.063.01.122-.008-.09c.578,7.347,1.389,29.57,1.4,29.638-4.769.773-5.262,3.576-9.1,4.326-1.277-24.72-1.075-16.6-2.84-37,0-.062-.011-.126-.016-.189,0-.029,0-.057-.007-.085l.005.058-.021-.252,0,.057c-.024-.29-.045-.581-.066-.872a.441.441,0,0,0-.13-.3.422.422,0,0,0-.3-.117.455.455,0,0,0-.053,0,.419.419,0,0,0-.363.421c.073,1.025.138,2.051.221,3.074l-.006-.06c.005.056.009.11.014.165s.007.1.012.154c0-.021,0-.042,0-.06.136,1.719.313,3.437.484,5.154.17,1.7.358,3.39.542,5.085.095.867.183,1.734.272,2.6.087.85.177,1.7.247,2.552.032.389.069.776.1,1.165l0-.054c.01.129.021.259.031.387,0,.062,0,.128.015.191.016.2.031.4.047.6l0-.054c.015.207.03.414.047.622l0-.056c.126,1.746.234,3.493.336,5.24.1,1.712.2,3.423.294,5.135s.171,3.416.283,5.121c.026.385.05.769.08,1.153.008.092.018.185.026.277-.19.026-8.85.273-9,.277l-.09-.6-.222-1.495q-.225-1.5-.4-3.013c-.133-1.148-.253-2.3-.349-3.447-.158-2-.26-4-.333-6.008-.073-2.022-.132-4.044-.253-6.064-.039-.645-.081-1.289-.135-1.932L94.36,34.9l.006.067c-.157-1.973-.37-3.942-.546-5.914-.079-.891-.152-1.785-.241-2.675a.471.471,0,0,0-.471-.4.4.4,0,0,0-.06,0,.472.472,0,0,0-.405.471c.025.425.056.849.09,1.273l0-.028c.01.135.021.269.032.4v-.012l0,.065h0l.006.083c-.013-.4.563,6.474.555,6.2.641,8.606.06,15.074,1.905,23.3-1.095.011-1.165.03-2.288.02-.026-.54-.073-1.222-.107-1.62v0c0-.032,0-.064-.008-.1v.008l0-.045,0-.021c-.031-.382-.07-.765-.115-1.146a.531.531,0,0,0-.952-.237.555.555,0,0,0-.1.393c.058.719.142,1.434.232,2.148.026.2.056.4.084.6-.14,0-.279-.006-.419-.008-.127-.925-.3-1.844-.438-2.767-.172-1.161-.317-2.325-.414-3.5-.182-2.4-.235-4.8-.4-7.2a21.435,21.435,0,0,0-1.57-7.678,19.191,19.191,0,0,0-4.5-6.294A12.275,12.275,0,0,0,81,28.256c-.577-.254-1.166-.477-1.753-.706-.517-.2-1.023-.424-1.526-.655-.668-.327-1.316-.681-1.953-1.065-.463-.311-.91-.637-1.346-.985-.415-.365-.809-.743-1.2-1.141-.638-.711-1.255-1.441-1.906-2.14a27.4,27.4,0,0,0-2.377-2.246,14.763,14.763,0,0,0-3.608-2.23c-.667-.287-1.346-.535-2.025-.79-.639-.239-1.263-.5-1.883-.786-.146-.072-.282-.156-.425-.232.377-.031.757-.033,1.13-.088a21.326,21.326,0,0,0,2.8-.593c.789-.229,1.555-.52,2.354-.722.367-.072.734-.126,1.105-.172.551-.037,1.095-.049,1.648-.043.5.027,1,.054,1.493.123.594.083,1.184.176,1.776.276,1.448.29,2.888.615,4.327.95,1.462.343,2.91.71,4.342,1.159,4.027,1.364,5.291,2.526,7.306,1.68.024.341.049.681.08,1.022.08.857.184,1.714.3,2.568.246,1.817.55,3.626.853,5.434.3,1.824.614,3.649.91,5.476.059.366.117.734.177,1.1.027.17.055.341.083.512a1.675,1.675,0,0,0,.084.39.38.38,0,0,0,.724-.107,2.191,2.191,0,0,0-.046-.491c-.029-.22-.059-.438-.089-.657q-.1-.7-.2-1.393-.211-1.384-.426-2.77c-.281-1.826-.561-3.651-.824-5.479-.234-1.636-.453-3.276-.589-4.924v.016l0-.038,0-.03,0,.011,0-.016v.01l0-.038,0-.028c0,.128-.063-.959-.068-1.132a8.286,8.286,0,0,0,.966-.916c0,.141-.009.282-.009.423,0,.358.005.716.017,1.072.026.75.066,1.5.128,2.251l-.005-.055c.009.108.018.215.026.324a.413.413,0,0,0,.821-.065c-.05-.78-.111-1.556-.145-2.337-.016-.373-.032-.745-.041-1.118,0-.18-.01-.358-.016-.537,0-.149,0-.3-.015-.446h0a.378.378,0,0,0-.133-.268,14.055,14.055,0,0,0,1.827-3.2c.006.268.01.536.019.8.034.952.093,1.9.166,2.853l.018.229.006.062c0,.041.006.083.01.125l0,.029c.151,1.9.367,3.8.6,5.7s.462,3.817.637,5.73c.027.277.049.553.072.829.152,1.914.252,3.833.35,5.75.095,1.889.22,3.776.3,5.664.078,1.918.143,3.838.243,5.755.071,1.373.173,2.743.283,4.113q.211,2.676.583,5.339c.009.065.018.13.028.2a.393.393,0,0,0,.778-.115c-.122-.872-.24-1.745-.343-2.62q-.159-1.354-.274-2.717c-.02-.229-.039-.459-.058-.688l0,.052c0-.044-.007-.088-.011-.131l0,.051c0-.051-.009-.1-.013-.155-.148-1.863-.247-3.729-.312-5.6-.067-1.9-.133-3.8-.212-5.707-.08-1.926-.185-3.85-.29-5.775-.058-1.077-.122-2.152-.21-3.227-.153-1.927-.363-3.85-.6-5.768-.119-.948-.238-1.895-.348-2.844s-.221-1.89-.306-2.838c-.029-.336-.056-.673-.086-1.011l0-.056-.006-.076c0-.034-.005-.068-.009-.1l-.006-.076,0,.056q-.113-1.421-.168-2.844c-.017-.462-.025-.923-.031-1.385,0-.234,0-.467-.01-.7,0-.161-.014-.323-.025-.485.057-.1.105-.2.164-.3.171-.254.351-.5.544-.737.185-.208.377-.406.577-.6.858-.761,1.792-1.436,2.692-2.142.947-.741,1.853-1.541,2.826-2.245.191-.13.385-.252.586-.366.091-.044.183-.086.274-.125.14-.045.28-.085.421-.121s.261-.041.39-.058c.179-.011.359-.014.539-.013.092.009.184.02.275.034s.176.046.264.072c.211.079.417.168.624.262.338.172.666.355.989.552.292.2.574.408.85.629a17.054,17.054,0,0,1,1.245,1.205c.378.417.743.842,1.113,1.265a12.941,12.941,0,0,0,1.233,1.3,5.492,5.492,0,0,0,1.7,1.01c.265.1.517.215.792.292A3.46,3.46,0,0,0,113.559,10.879Zm11.686-6.922c.075-.049.152-.094.229-.138.023.387.046.776.081,1.161.007.109.015.216.025.324s.017.24.027.36c.152,2.139.3,4.279.337,6.423.042,2.168-.024,4.334-.112,6.5q-.015.384-.032.77v-.021q-.015.293-.026.586c-.059,1.084-.1,2.17-.141,3.255s-.085,2.167-.122,3.25c-.069,2.118-.123,4.234-.138,6.351q-.021,3.2.031,6.4c.05,3.3.158,6.532.448,10.143,0-.005.091,1.139.091,1.125,0,.049.087,1.1.085,1.049.014.2.055.656.071.841-1.795.12-1.087.07-2.628.13-.156-1.118-.351-3.136-.406-3.9h0l-.006-.075h0c-.2-2.7-.344-5.843-.234-12.569.035-2.134.1-4.27.143-6.406.049-2.172.026-4.347-.047-6.518s-.188-4.364-.269-6.547c-.021-.518-.05-1.04-.054-1.559a.4.4,0,0,0-.35-.392.389.389,0,0,0-.108,0,.415.415,0,0,0-.339.347,4.018,4.018,0,0,0-.042.515c-.06,1.079-.041,2.164-.025,3.243s.045,2.179.07,3.269c.049,2.166.071,4.332.03,6.5-.041,2.151-.122,4.3-.183,6.455-.3,10.563.129,13.92.661,17.684-2.03.067-3.684.125-5.514.293-.161-3.284.261-18.51-.713-33.61A34.235,34.235,0,0,1,116,15.743c.038-.548.1-1.092.186-1.634.075-.364.163-.722.267-1.079.081-.224.169-.444.266-.663.119-.223.244-.442.378-.658.153-.221.312-.435.479-.647.308-.349.634-.678.974-1,.978-.878,1.972-1.735,2.933-2.63s1.914-1.846,2.89-2.749C124.657,4.433,124.943,4.187,125.245,3.957Zm37.961,35.875c-.09,1.357-.189,2.712-.276,4.069-.078,1.25-.175,2.5-.205,3.753-.021.843,0,1.688-.035,2.531-.011.176-.021.351-.027.527a1.292,1.292,0,0,0,.641,1.115c-.064.141-.134.283-.2.419-.25.54-.479,1.089-.7,1.64-.947,2.345-1.8,4.739-2.513,7.165-.32,1.09-.594,2.189-.846,3.3.016-.243.039-.485.052-.729q.018-.3.035-.6c.008-.164.014-.327.022-.489.069-1.031.214-2.061.36-3.085.124-.866.253-1.731.364-2.6.139-1.091.24-2.185.321-3.281.026-.343.046-.686.064-1.029q.2-3.637.292-7.283c.065-2.518.1-5.041.028-7.559q-.025-.906-.079-1.809c-.02-.315-.039-.629-.06-.944-.016-.248-.041-.5-.033-.749a.438.438,0,0,0-.379-.463.409.409,0,0,0-.116,0,.446.446,0,0,0-.363.356l0-.031-.008.046,0,.005v.005a4.185,4.185,0,0,0-.047.708c0,.311,0,.622.01.933q.017.938.035,1.875c.024,1.244.035,2.493.011,3.738s-.042,2.469-.088,3.7c-.046,1.251-.106,2.5-.169,3.75-.006.115-.013.231-.019.347l0-.035,0,.06v0c0,.024,0,.048,0,.072,0-.024,0-.05.005-.074l-.011.186c-.065,1.153-.153,2.3-.278,3.45-.118,1.072-.265,2.143-.434,3.209-.152.952-.3,1.9-.447,2.857-.091.6-.182,1.2-.245,1.808-.037.356-.063.713-.1,1.068-.045.46-.1.917-.132,1.378v-.012c-.059,1.05-.145,2.1-.229,3.147q-.121,1.526-.273,3.05-.061.617-.139,1.232a6.685,6.685,0,0,0-.1,1.1c0,.026.023.043.027.069-.031.056-.06.113-.091.169-.187.279-.381.546-.592.807-.131.137-.262.27-.4.4-.04.036-.086.065-.127.1.028-.356.056-.712.086-1.068.1-1.137.183-2.276.271-3.414q.291-3.747.524-7.495c.023-.378.045-.754.065-1.131,0,.033,0,.067,0,.1,0-.093.011-.186.016-.278.025-.442.051-.883.075-1.325,0,.033,0,.066-.006.1.072-1.307.118-2.616.114-3.924,0-1.332-.043-2.663-.093-3.993q-.129-3.334-.394-6.66v.009l0-.048,0-.042v.011l-.039-.475v.007c-.221-2.757-.56-5.5-.878-8.249-.286-2.474-.565-4.948-.772-7.429-.2-2.667-.318-5.339-.45-8.011q-.1-2.04-.195-4.079c-.062-1.347-.126-2.694-.158-4.042-.008-.366-.02-.732-.028-1.1,0-.183-.007-.367-.013-.549,0-.071-.006-.141-.009-.212a.545.545,0,0,0-.017-.161.377.377,0,0,0-.308-.262.35.35,0,0,0-.1,0,.384.384,0,0,0-.267.183.568.568,0,0,0-.057.24c-.012.161-.012.323-.014.485-.006.317-.006.633-.006.948,0,.66.017,1.318.033,1.976q.051,2.03.142,4.06c.12,2.717.249,5.434.4,8.151.08,1.409.164,2.818.28,4.225v-.022c.012.161.025.324.038.486V30.21c.009.128.021.256.031.384V30.58l0,.045V30.61l0,.059v0h0c.011.146.025.291.037.436l-.006-.064c.012.152.026.3.04.458l0-.038c.065.812.14,1.623.214,2.434.071.788.135,1.577.209,2.363.042.534.091,1.068.137,1.6v0c.013.16.027.319.04.479v-.015l.006.07,0-.036c.01.132.021.265.032.4,0-.025,0-.051-.007-.078.024.309.045.616.072.923,0-.026,0-.052-.007-.079.207,2.7.351,5.415.47,8.125.117,2.651.184,5.306.151,7.958-.01.838-.057,1.675-.094,2.511s-.068,1.645-.109,2.468c0,.069-.007.139-.011.208v-.014c-.048.812-.08,1.623-.123,2.435l0,.056h0l0,.081v.01l0,.061-.007.126V63.53c-.029.534-.062,1.067-.09,1.6,0-.032,0-.063,0-.094,0,.05,0,.1-.008.151V65.2l0,.081,0-.024,0,.075v-.019l0,.059,0,.035V65.4c0,.029,0,.057,0,.086,0-.022,0-.044,0-.066-.091,1.6-.2,3.2-.28,4.807l0,.083,0-.089c0,.048,0,.1-.008.144-.044.8-.092,1.594-.149,2.392l-.063.934c-.009.132-.018.262-.026.393,0,.06,0,.121,0,.182-.239.18-.466.375-.707.551,0-.14.019-.28.024-.419.009-.237.016-.475.023-.712.014-.534.032-1.067.046-1.6q.048-1.7.081-3.4c.018-.9.057-1.79.105-2.685v-.015l0-.056,0,.034c0-.032,0-.063,0-.1v.04c0-.05,0-.1.008-.151h0l0-.084v0l0-.073,0,.042.006-.111v.024l0-.06V65.5c0-.088.01-.177.015-.266V65.2c0-.044,0-.086.007-.128l0,.02c0-.039,0-.079.007-.118,0,.028,0,.055,0,.083,0-.089.009-.177.014-.265,0,.027,0,.055,0,.082q.2-3.737.268-7.484.031-1.929.051-3.858c.012-1.2.035-2.4.059-3.6a7.215,7.215,0,0,0,0-.792v-.011a.352.352,0,0,0-.421-.3.326.326,0,0,0-.271.216,2.642,2.642,0,0,0-.091.651c-.026.315-.044.631-.062.946l0-.055c-.007.118-.013.235-.019.353-.067,1.21-.105,2.422-.15,3.634-.047,1.3-.1,2.59-.166,3.885q-.036.685-.071,1.372c0,.068-.008.136-.011.2,0,.03,0,.06,0,.09-.134,2.423-.356,4.838-.6,7.252-.061.6-.13,1.194-.186,1.792s-.095,1.207-.127,1.811l0-.027-.01.175.006-.105-.006.115-.006.1v-.018l-.009.163c0-.034,0-.069.007-.1-.066,1.148-.111,2.3-.166,3.448l0,.026v.024h0v.015l0,.087,0,.059v0a3.419,3.419,0,0,0,.011.505.718.718,0,0,0,.206.414c-.594.436-.2.136-.81.6.033-.348.068-.7.094-1.042.093-1.233.141-2.467.207-3.7.143-2.54.33-5.076.508-7.614.191-2.728.422-5.455.566-8.186a42.531,42.531,0,0,0-.226-8.259c-.181-1.254-.437-2.5-.7-3.735-.281-1.335-.572-2.674-.935-3.989-.066-.24-.136-.48-.215-.716-.068-.2-.141-.406-.23-.6a1.424,1.424,0,0,0,.012-1.16,16.521,16.521,0,0,0-.842-1.5c-.281-.483-.564-.962-.889-1.417a8.159,8.159,0,0,0-2.754-2.507,10.064,10.064,0,0,0-3.618-1.053,11.294,11.294,0,0,0-2.9.022q-.261.039-.518.094a6.531,6.531,0,0,0-.971.27,7.681,7.681,0,0,0-.878.408,4.554,4.554,0,0,0-.793.575,4.467,4.467,0,0,0-1.16,1.589,6.776,6.776,0,0,0-.416,2.617c-.017.588.011,1.179.034,1.765.046,1.224.122,2.446.171,3.669.047,1.163.045,2.327.049,3.491,0,1.651-.019,3.306.062,4.953a11.219,11.219,0,0,0,.308,2.278c-.718-.1-1.436-.205-2.156-.293-.5-.061-1-.1-1.495-.144-.016-.15-.029-.3-.043-.449q-.057-.588-.106-1.175v0c-.077-.968-.128-1.937-.171-2.907-.044-1-.109-2-.131-3-.023-1.075-.048-2.151-.044-3.226s.023-2.148.042-3.222q.062-3.249.035-6.5c-.015-2.085-.09-4.169-.258-6.248-.025-.309-.052-.617-.082-.927-.024-.252-.042-.508-.085-.758a.348.348,0,0,0-.344-.292.359.359,0,0,0-.047,0,.348.348,0,0,0-.289.319,4.98,4.98,0,0,0,.02.6c.017.257.035.515.05.772.032.527.065,1.053.09,1.579.055,1.077.1,2.155.113,3.235.027,2.209.005,4.42-.041,6.628-.046,2.165-.157,4.328-.259,6.491-.023.525-.041,1.051-.059,1.577-.018.51-.043,1.021-.056,1.533-.013.5-.023.993-.015,1.49s.027,1.015.05,1.521c.019.385.042.769.073,1.153l0-.042.012.144v0l0,.024V50.6q.05.6.115,1.2c.014.131.03.261.045.391a22.575,22.575,0,0,0-3.392.085s-.083-1.078-.085-1.1V51.2c-.285-3.817-.52-8.172-.62-12.266-.026-1.075-.038-2.149-.051-3.224-.006-.523-.007-1.048-.009-1.572s-.006-1.061,0-1.592c.009-.55.012-1.1.019-1.651.008-.531.021-1.061.031-1.591.021-1.056.048-2.113.088-3.168s.081-2.095.125-3.144c.043-1.019.075-2.04.13-3.06l0,.055c.011-.21.021-.421.029-.631.058-1.051.095-2.105.126-3.157.015-.522.03-1.044.039-1.566.01-.581.01-1.161.011-1.743,0-.974-.028-1.951-.075-2.925-.05-1.019-.1-2.039-.19-3.055l0,.056c-.014-.173-.026-.345-.039-.518v.02c-.009-.1-.016-.2-.025-.3l0,.025-.01-.123c-.063-.794-.144-1.587-.224-2.38.052,0,.1,0,.156,0,.275.025.547.065.819.112.25.059.5.124.741.2.146.056.29.115.434.176.243.124.479.258.711.4.392.27.768.559,1.134.863.448.387.89.781,1.348,1.157a12.3,12.3,0,0,0,1.418.983,7.539,7.539,0,0,0,3.716,1.114,8.668,8.668,0,0,0,4.1-.935c1.149-.574,2.207-1.309,3.333-1.927.323-.163.65-.311.987-.443.341-.115.685-.214,1.036-.3.423-.083.848-.143,1.278-.185.615-.045,1.231-.077,1.848-.114.674-.039,1.342-.068,2.017-.046.482.036.959.092,1.436.172.456.094.9.209,1.35.344a17.762,17.762,0,0,1,1.733.7c.294.148.579.3.858.474.055.038.108.078.161.119.095.086.187.174.277.266.1.123.2.249.3.377.216.327.413.66.6,1,.35.706.669,1.421.951,2.156.271.781.487,1.573.685,2.375a25.15,25.15,0,0,0,.824,2.69c.577,1.566,1.312,3.068,1.907,4.627a31.95,31.95,0,0,1,1.021,3.709c.158.818.273,1.637.351,2.465a45.894,45.894,0,0,1,.081,5.438C163.692,34.386,163.387,37.1,163.206,39.832ZM134.85,149.372c2.869-4.908,3.863-5.026,6.8-11.128.375-.2,12-28.6,12.156-28.991.659-1.64,1.3-3.288,1.98-4.919.656-1.568,1.348-3.121,2.04-4.674.709-1.59,1.427-3.176,2.122-4.773a49.435,49.435,0,0,0,1.888-4.962c.525-1.681.978-3.383,1.343-5.106.367-1.741.64-3.507.869-5.271.32-2.493.572-5,.7-7.5V72.02c.063-1.13.1-2.262.131-3.395q.027-.853.049-1.709c.007-.278.011-.557.015-.835,0-.176.02-.357.011-.533a.367.367,0,0,0-.422-.36.353.353,0,0,0-.268.185,1.86,1.86,0,0,0-.131.635c-.032.314-.05.629-.067.943l0-.056c-.031.553-.057,1.108-.086,1.662v.027l0,.029v0c-.094,1.693-.214,3.384-.387,5.071-.257,2.494-.844,6.557-1.247,8.75.006-.026.011-.053.017-.08l-.036.183c0-.028.011-.054.015-.081-.021.115-.043.231-.065.346-.211,1.1-.454,2.188-.742,3.268-.276,1.043-.594,2.077-.93,3.1-.564,1.662-1.227,3.285-1.941,4.888s-1.477,3.195-2.219,4.792c-.722,1.556-1.444,3.113-2.141,4.681-.711,1.6-1.382,3.218-2.049,4.838-1.37,3.322-4.688,10.763-7.166,17.018a145.741,145.741,0,0,1,3.195-17.583c.573-2.434,1.162-4.864,1.724-7.3.286-1.228.548-2.461.813-3.693q.388-1.8.764-3.6.77-3.7,1.51-7.4c.14-.7.279-1.4.408-2.1v.007a31.879,31.879,0,0,0,.664-5.642,37.022,37.022,0,0,0,4.066-3.031,9.313,9.313,0,0,0,1.608-2.14c.236-.436.455-.881.651-1.337.182-.423.325-.861.469-1.3a23.053,23.053,0,0,0,.644-2.59c.182-.919.37-1.836.572-2.749.385-1.734.939-3.433,1.49-5.121.065-.2.131-.4.2-.6.4-1.193.811-2.382,1.246-3.562.214-.582.433-1.162.652-1.743.127-.339.248-.679.378-1.015.141.218.272.441.4.671.34.69.637,1.395.911,2.115-.008-.025-.017-.049-.025-.073l.029.08c-.008-.021-.016-.043-.023-.064l.027.077c.01.027.02.055.031.082l-.023-.06c.024.066.048.132.073.2a39.777,39.777,0,0,1,1.315,4.775c.269,1.272.523,2.547.723,3.83.212,1.363.389,2.731.546,4.1.127,1.806.21,3.613.287,5.422q.109,2.578.03,5.157l-.036.667a22.989,22.989,0,0,1-.327,2.817q-.06.314-.118.626c-.226,1.045-.5,2.07-.813,3.091-.779,2.337-1.775,4.589-2.762,6.845-.971,2.221-1.974,4.423-2.828,6.693-.783,2.089-1.5,4.205-2.244,6.307-.725,2.032-1.526,4.043-2.445,6-1.048,2.122-2.27,4.152-3.487,6.178-1.268,2.111-2.523,4.224-3.71,6.38-.728,1.321-1.42,2.659-2.052,4.026a1.051,1.051,0,0,0-.045.1l-.075.164c-.645,1.415-1.261,2.844-1.925,4.248a30.829,30.829,0,0,1-1.68,2.982,49.135,49.135,0,0,1-3.34,4.4c-1.624,1.919-3.345,3.751-5.044,5.605Q136.141,147.812,134.85,149.372Zm-16.191,26.69c-.035-.21-.033-.182-.02-.031a.871.871,0,0,0-1.741-.057,12.272,12.272,0,0,1-4.445-2.353c3.545-.815,6.537-1.589,9.574-3.633a1.571,1.571,0,0,0,.526-2.167c-1.061-1.741-2.5-.185-4.253.766-2.526,1.263-9.214,3.523-14.656,3.263a33.62,33.62,0,0,1-14.21-3.942c-2.341-1.349-6.179-4.084-8.334-5.695-2.112-1.58-4.152-3.252-6.29-4.8-.621-.449-1.262-.876-1.911-1.282-.367-.228-.75-.431-1.124-.649,1.006.088,2,.226,2.99.41a46.889,46.889,0,0,1,4.587,1.224c2.037.68,4.041,1.454,6.02,2.29,3.943,1.67,6.591,3.108,10.664,4.138,1.727.436,3.452.876,5.18,1.309a1.294,1.294,0,0,0,1.052-.208,63.457,63.457,0,0,0,8.437.912c4.361.283,11.3.7,16.35-2.967C126.768,168.493,124.505,175.193,118.659,176.062Zm80-53.715a1.673,1.673,0,0,0,1.905.933,1.892,1.892,0,0,0,.488.292,15.872,15.872,0,0,0-1.453.947,1.806,1.806,0,1,0,2.262,2.817c.288-.232.584-.455.884-.672,6.35,21.838-1.883,31.21-4.291,35.438q-.88,1.54-1.732,3.1c-.255.468-.506.94-.736,1.42a1.155,1.155,0,0,0-.615-.294,1.192,1.192,0,0,0-.316,0,1.227,1.227,0,0,0-1.037,1.054c-.209,1.791-.485,3.573-.762,5.354q-.429,2.751-.934,5.485c0-.022.008-.044.013-.066l-.019.1-.012.059.011-.05-.025.127-.007.038.006-.032a46.785,46.785,0,0,1-1.349,5.466c-.539,1.531-1.156,3.025-1.843,4.5-.354.71-.711,1.422-1.108,2.11-.418.723-.854,1.434-1.3,2.141a74.8,74.8,0,0,1-5.287,6.922q-1.054,1.224-2.157,2.4c-.708.76-1.467,1.47-2.224,2.18-.723.649-1.456,1.284-2.206,1.9-.731.6-1.489,1.164-2.251,1.725l-.915.624a29.771,29.771,0,0,1-2.863,1.671c-4.407,2.266-1.558.671-9.406,4.86-2.07,1.107-5.961,2.758-5.885,4.693a1.456,1.456,0,0,0-.041,2.1c.816.809,1.638,1.613,2.493,2.379a100.367,100.367,0,0,0,8.415,6.323c2.659,1.839,7.606,5.393,10.116,7.46,1.906,1.666,4.405,4.349,7.082,7.266l.281.307-.034-.038.18.2.128.14a60.253,60.253,0,0,1,5.437,6.962l.033.046c.269.374,1.279,1.846,2,2.945.266.406.517.82.774,1.23a70.238,70.238,0,0,0-7.068-6.751c.021.019-1.221-1.05-2.637-2.114-.906-.681-1.758-1.253-2.7-1.86-.125-.081-.248-.163-.125-.08l-.215-.14c.77.5-6.2-3.781-7.044-4.3-1.436-.872-1.866-1.153-2.854-1.786.185.115.208.226-3.374-2.307a65.166,65.166,0,0,1-5.274-4.087c-2.07-1.73-2.044-1.711-2.044-1.711-.047-.039-.195-.166-.153-.127l-.019-.017,0,0-.029-.025-.007-.006.013.01c-.631-.55-.333-.266-1.479-1.276a47.694,47.694,0,0,1-4.023-3.856l-.088-.095a1,1,0,0,0-.938-.416.907.907,0,0,0-.652,1.371,15.391,15.391,0,0,0,1.261,1.418,47.355,47.355,0,0,0,3.744,3.427l.159.134h0l.062.052-.008-.007c17.686,14.7,22.144,11.558,35.78,26.351l.317.347-.015-.016q.709.793,1.424,1.583a42.588,42.588,0,0,0-7.973-5.357,81.95,81.95,0,0,0-13.344-5.6c-2.208-.739-6.488-2.059-7.824-2.575a25.386,25.386,0,0,1-3.386-1.554,19.141,19.141,0,0,1-2.672-1.8,20,20,0,0,1-1.783-1.706,77.083,77.083,0,0,1-4.841-6.438c.227.317-.354-.5-.579-.822-1.065-1.523-2.231-3.208-3.224-4.771a21.768,21.768,0,0,0-1.974-2.977.751.751,0,0,0-.822.009,1.434,1.434,0,0,0-.361-.4,1.5,1.5,0,0,0-2.084.31,51.592,51.592,0,0,1-3.182,4.156,41.615,41.615,0,0,1-7.6,7.1,38.44,38.44,0,0,1-4.6,2.721c-19.068,9.834-35.923,8.854-50.664,18.295.326-.245.653-.488.988-.723.6-.415,1.2-.822,1.81-1.213.628-.4,1.269-.784,1.912-1.161,1.284-.753,2.574-1.5,3.854-2.255,1.868-1.11,3.73-2.231,5.651-3.244,1.316-.681,2.643-1.339,3.968-2q2.043-1.021,4.095-2.022c1.166-.568,2.341-1.119,3.535-1.628s2.406-1,3.627-1.457c1.389-.5,2.8-.933,4.222-1.326,1.471-.406,2.953-.766,4.435-1.133s2.942-.729,4.395-1.162q2.208-.66,4.364-1.481c.7-.267,1.389-.549,2.065-.866.7-.327,1.377-.684,2.047-1.062a29.335,29.335,0,0,0,3.669-2.487q.989-.771,1.914-1.615a47.158,47.158,0,0,0,3.794-3.941c.272-.31,1-1.135,1.232-1.445a.921.921,0,0,0-.879-1.459c-.46.069-.8.571-1.141.965-.363.417-1.568,1.753-1.935,2.158-.863.954-1.775,1.862-2.719,2.733a39.478,39.478,0,0,1-3.652,2.926,25.588,25.588,0,0,1-2.348,1.423c-.665.346-1.337.674-2.028.964-.721.3-1.453.584-2.187.856q-2.066.747-4.182,1.35c-1.461.416-2.935.785-4.4,1.175s-2.918.776-4.357,1.231q-2.209.7-4.365,1.547c-2.829,1.113-5.572,2.425-8.287,3.788-1.571.787-3.151,1.554-4.708,2.368q-2,1.049-3.954,2.194c-1.278.749-2.537,1.533-3.814,2.284-1,.586-2.006,1.162-2.991,1.772q-1.53.945-3,1.977a24.732,24.732,0,0,0-2.457,1.941c-.63.577-1.2,1.214-1.771,1.843l.569-.743c.406-.53.809-1.066,1.228-1.586.518-.644,1.024-1.3,1.555-1.931l1.512-1.8c1.155-1.343,2.319-2.672,3.533-3.961,1.124-1.195,2.317-2.324,3.513-3.447.518-.46,1.033-.921,1.565-1.367.579-.486,1.165-.962,1.754-1.437,1.058-.858,2.146-1.675,3.246-2.48,1.82-1.267,3.658-2.5,5.592-3.588.471-.234.94-.464,1.422-.677s.987-.41,1.486-.6c2.294-.807,4.62-1.5,6.966-2.136,2.312-.627,4.652-1.145,6.986-1.678,1.181-.27,2.358-.554,3.526-.872,1.131-.308,2.251-.653,3.368-1.007a64.056,64.056,0,0,0,6.683-2.557,44.855,44.855,0,0,0,5.015-2.58q1.186-.72,2.311-1.53c1.482-1.071,3.6-2.269,2.453-3.694a1.458,1.458,0,0,0-1.332-.51c-.014,0-.025.016-.039.018a1.569,1.569,0,0,0-.62-.067c-.668.065-1.333.17-2,.263s-1.311.169-1.968.246c-1.266.144-2.53.257-3.8.362-2.141.172-4.282.329-6.431.4-2.187.073-4.378.119-6.564.031a152.626,152.626,0,0,1-16.067-2.086c-5.217-1.068-17.66-4.611-22.267-6.906a5.774,5.774,0,0,0-.526-.252c-.1-.048-.194-.092-.287-.137-1.082-.523-2.141-1.1-3.179-1.7-.593-.345-1.173-.712-1.759-1.068,3.379-.427,3.151-.381,8.376-1.256,3.11,1.323,6.239,2.534,9.349,3.547h0l.074.024-.016,0,.043.014-.01,0,.016,0,.055.018c2.557.843,5.157,1.55,7.778,2.159,2.644.614,5.325,1.07,8,1.5,1.94.314,3.883.588,5.814.948,2.609.5,5.208,1.057,7.828,1.5a71.27,71.27,0,0,0,7.833.848c.621.035,1.242.059,1.863.087,2.554.15,5.115.3,7.651.653.483.066.965.149,1.445.238h0c.457.089.906.195,1.358.3a.876.876,0,0,0,.438-1.7c-.581-.145-1.177-.248-1.767-.348s-1.195-.179-1.794-.247c-1.268-.145-2.541-.229-3.813-.3-2.215-.129-4.433-.147-6.648-.264-1.32-.077-2.641-.172-3.957-.314-3.193-.346-5.724-.89-8.96-1.5a143.192,143.192,0,0,1-30.709-7.461,70.3,70.3,0,0,1,10.687-1.222,62.156,62.156,0,0,0,9.364,2.319c1.179.217,2.364.4,3.545.614l1.45.26q3.494.671,6.918,1.618c2.318.641,4.611,1.366,6.933,1.994,1.972.531,3.968.974,5.97,1.373.2.04.4.07.6.108,1,.458,1.992.913,3.005,1.331a1.672,1.672,0,0,0,1.854-.446l.2.036c1.174.226,2.342.51,3.517.742a1.465,1.465,0,0,0,1.071-.159,1.391,1.391,0,0,0-.377-2.533c-1.351-.266-2.7-.551-4.046-.808-.735-.139-1.469-.27-2.2-.4-.8-.294-1.6-.582-2.394-.9-1.193-.482-2.376-.982-3.581-1.435-1.234-.463-2.485-.9-3.743-1.292-1.233-.387-2.482-.719-3.719-1.091-1.265-.379-2.52-.787-3.776-1.194-3.123-1.015-9.867-3.621-21.988-2.851l-.06-.022c-.584.037-4.059.406-4.242.431l.027.012c-6.807.933-6.933,1.4-18.472,3.013h0c-.115.016-2.512.364-2.82.413l.012.009c-4.459.7-10.26,1.912-14.122,4.3a7.477,7.477,0,0,0-1.3-2.25c6.458-3.591,20.589-6.5,28.025-8.153q1.236-.264,2.476-.51c1-.2,2.011-.379,3.02-.546,1.59-.263,3.187-.487,4.793-.636,1.176-.072,2.35-.109,3.529-.095,1.32.016,2.64.053,3.958.085,2.428.059,4.857.076,7.282.18.778.047,1.553.107,2.328.187.754.079,1.5.215,2.246.351,1.035.212,2.069.436,3.089.714s2.054.587,3.072.91a64.82,64.82,0,0,1,7.493,2.959l.356.17-.035-.018.038.019.108.051-.106-.05a32.353,32.353,0,0,1,3.055,1.693c1.172.772,2.318,1.581,3.468,2.385q1.761,1.23,3.558,2.4c.589.382,1.178.762,1.783,1.119a1.47,1.47,0,0,0,1.985-.563c.014-.025.013-.053.025-.08a34.58,34.58,0,0,0,3.464,3.573c.716.64,1.449,1.259,2.193,1.865,1.308,1.066,3.091,2.911,4.064,1.6,1.06-1.43-1.1-2.134-3.892-4.437a42.579,42.579,0,0,1-3.532-3.33c-.343-.384-.681-.772-1-1.178-.333-.424-.649-.859-.961-1.3-1.244-1.817-2.422-3.679-3.583-5.55-8.993-14.473-9.86-20.6-11.028-25.889.061-.007.122-.007.183-.015q.049.306.116.609c.179.817.4,1.622.628,2.428q.333,1.165.7,2.323c.267.835.538,1.669.842,2.491.2.561.431,1.114.652,1.67a.4.4,0,0,0,.534.206.409.409,0,0,0,.206-.534c-.107-.276-.212-.555-.314-.833-.025-.068-.05-.137-.076-.205a73.853,73.853,0,0,1-2.516-8.319c.084-.021.169-.031.252-.056.012.055.016.11.028.164.136.626.3,1.245.484,1.859a.4.4,0,1,0,.759-.222q-.165-.673-.334-1.346c-.061-.239-.116-.479-.172-.718a7.088,7.088,0,0,0,1.128-.534c1.319,7.835,5.294,19.064,10.662,25.594h0c.093.183,1.923,2.644,2.048,2.808a.4.4,0,1,0,.629-.5c-.744-1.015-1.473-2.026-2.248-3.127.094.145-.069-.095-.171-.24l0,0-.041-.059,0,.007-.051-.072,0,0c-.027-.039-.054-.078-.082-.116.023.03-.1-.132-.016-.024-5.358-7.71-7.378-13.124-9.85-23.865,4.772,14.848,9.671,25,22.159,37.495a1.23,1.23,0,0,0,1.125.305c.727,1.571,2.4.419,1.623-.521-1.156-3.73-1.47-10.912-1.648-14.542-.112-2.3-.2-4.6-.176-6.9.008-.8.039-1.61.08-2.412l0,.075c0-.04,0-.081.007-.122l0-.044,0,.034,0-.033,0,.03q.033-.57.064-1.139v.019c.09-1.3.179-2.6.312-3.9.07-.681.133-1.366.231-2.043s.213-1.363.333-2.042c.113-.52.225-1.038.358-1.553.147-.572.317-1.135.487-1.7a39.072,39.072,0,0,1,1.682-4.184l-.074.153c.154-.32.309-.64.462-.961.459-.9.94-1.787,1.441-2.667.49-.861,1.032-1.7,1.569-2.529l.049-.074-.03.044c.088-.136.177-.272.264-.408l.05-.077.042-.065-.009.014.065-.1.016-.026.051-.078-.011.017.5-.765c.154-.235.306-.471.458-.707l-.026.04c.019-.029.037-.058.056-.086l.037-.058-.015.023.346-.534-.013.02.055-.086c.02-.031.051-.077.031-.048,1.772-2.742,3.443-5.546,5.213-8.288.581-.889,1.164-1.778,1.792-2.634.669-.91,1.368-1.8,2.076-2.676,1.39-1.727,2.813-3.428,4.154-5.194.9-1.184,1.736-2.411,2.557-3.649-25.634,49.117-18.015,50.014-22.425,69.394a1.988,1.988,0,0,0-.057.335.98.98,0,0,0,.127.587.917.917,0,0,0,1.153.361c.537-.239.591-.832.715-1.4.075-.348.142-.7.207-1.045.114-.6.215-1.21.307-1.817.2-1.28.334-2.568.483-3.854.158-1.364.3-2.731.439-4.1q.225-2.145.474-4.286c.326-2.848.7-5.692,1.181-8.518.05-.285.1-.57.155-.854.276-1.449.584-2.893.943-4.324.346-1.386.744-2.759,1.183-4.117.053-.162.1-.323.157-.485-.009.03-.019.06-.029.09.924-2.808,2-5.563,3.14-8.291s2.247-5.441,3.493-8.107c.066-.143.134-.286.2-.428l-.023.044q.108-.222.214-.445h0l.017-.037-.007.017c.606-1.26,1.243-2.5,1.867-3.757.653-1.306,1.3-2.619,1.948-3.926.912-1.83,1.849-3.645,2.731-5.489.166-.347.331-.7.5-1.044-.011.025-.023.048-.034.073.051-.1.1-.21.15-.314l0,.01.015-.032.019-.04,0,.011,0,.006,0,.011c1.472-3.092,2.237-4.359,2.987-6.417-.009.055-.011.11-.02.166a27.63,27.63,0,0,1-.835,3.135c-.536,1.591-1.076,3.181-1.6,4.777-.334,1.014-.656,2.031-.988,3.044l.01-.029c-.076.232-.153.463-.228.695.013-.042.026-.083.04-.124-.563,1.685-1.144,3.365-1.7,5.052a63.441,63.441,0,0,0-1.728,6.351c-.466,2.151-.806,4.329-1.153,6.5q-1.055,6.569-1.823,13.18c-.155,1.341-.282,2.685-.438,4.027-.159,1.382-.354,2.756-.6,4.125-.131.646-.266,1.29-.42,1.931-.147.606-.331,1.2-.516,1.795a53.876,53.876,0,0,1-2.218,5.279c-5.35,11.073-8.916,12.667-6.362,13.661a.679.679,0,0,0,.57.365,6.853,6.853,0,0,0,2.089-.512,77.757,77.757,0,0,0,8.054-4.239c.543-.333,6.124-3.964,6.787-4.428a36.02,36.02,0,0,0,4.979-4.107,59.512,59.512,0,0,0,4.368-5.054q1.43-1.821,2.689-3.768c-.026.04-.053.081-.078.121q.132-.2.263-.408l-.034.054.481-.741c-.027.04-.054.082-.08.122l.636-.978-.006.008q.9-1.375,1.771-2.768c.526-.835,1.05-1.67,1.54-2.525.539-.941,1.05-1.9,1.5-2.883a22.438,22.438,0,0,0,1.135-3.229c.424-1.519.774-3.058,1.093-4.6.3-1.448.6-2.9.879-4.35.179-.955.35-1.914.451-2.881a1.3,1.3,0,0,0-1.117-1.427,1.264,1.264,0,0,0-.331,0c-.022,0-.043.016-.065.021l0-.014a.954.954,0,0,0-.045-.434c.009.025.017.049.027.074v0s.023.108.023.1,0,.012,0,0c0,.037,0,.073.008.109v0c0,.006,0,.01,0,.006l0,.051a2.824,2.824,0,0,0,.061-.5,5.4,5.4,0,0,0-.155-1.179,19.022,19.022,0,0,0-.786-2.515c-.22-.6-.448-1.2-.672-1.806-6.964-19.4,2.579-27.967,8.3-37.724A1.6,1.6,0,0,0,198.662,122.347Z"/>
        <path class="cls-1" d="M129.609,212.449l.026.017Z"/>
        <path class="cls-1" d="M107.413,162.819l0,0C107.326,162.746,107.328,162.748,107.413,162.819Z"/>
        <polygon class="cls-1" points="93.418 139.692 93.422 139.702 93.423 139.703 93.418 139.692"/>
        <path class="cls-1" d="M107.426,162.829l0,0C107.394,162.8,107.426,162.829,107.426,162.829Z"/>
        <path class="cls-1" d="M56.757,84.486l-.012-.016-.029-.042Z"/>
        <path class="cls-1" d="M96.092,154.178l-.006-.013C96.135,154.255,96.087,154.168,96.092,154.178Z"/>
        <path class="cls-1" d="M84.965,127.829a.533.533,0,0,1-.7-.268c-.595-1.247-1.115-2.526-1.67-3.79q-1.5-3.409-3.215-6.715l.031.058-.143-.273c-.365-.689-.736-1.374-1.127-2.047-.374-.642-.769-1.269-1.179-1.887-.345-.521-.706-1.031-1.058-1.547-.376-.552-.747-1.105-1.107-1.665-.694-1.08-1.337-2.192-1.984-3.3-2.119-3.637-2.5-4.477-3.841-6.881-1.469-2.636-6.091-9.85-8.117-13.352a66.1,66.1,0,0,0-8.112-12.053c-.5-.625-2.692-3.153-1.971-3.471.376-.168.576.409.829.776,2.112,2.976,5.029,5.529,8.88,12.209,3.225,5.584,4.19,6.776,8.234,13.439,1.349,2.221,2.507,4.552,3.789,6.812.637,1.124,1.293,2.238,1.952,3.35s1.358,2.217,2.087,3.294c.7,1.037,1.426,2.058,2.078,3.127s1.26,2.187,1.845,3.305q.126.242.253.482c-.012-.019-.022-.039-.032-.058q.737,1.4,1.436,2.827c.552,1.115,1.065,2.251,1.558,3.393.254.587.5,1.175.759,1.761s.524,1.186.789,1.778A.534.534,0,0,1,84.965,127.829Z"/>
        <path class="cls-1" d="M101.983,159.458l.006.007C101.921,159.393,101.931,159.4,101.983,159.458Z"/>
        <path class="cls-1" d="M100.948,158.33l.045.05C100.979,158.363,100.963,158.347,100.948,158.33Z"/>
        <path class="cls-1" d="M95.175,148.251c.058.111.115.224.174.335.437.809.881,1.615,1.361,2.4s.984,1.543,1.51,2.294a43.765,43.765,0,0,0,5.262,6.2.542.542,0,0,1-.082.76c-.5.4-.96-.283-1.417-.783-.061-.066-.121-.132-.181-.2.135.16-.181-.2-.143-.154a37.039,37.039,0,0,1-3.9-4.839h0a47.725,47.725,0,0,1-3.154-5.2l.006.011c-.965-1.846-1.819-3.961-2.736-5.985-.4-.889-.828-1.765-1.245-2.648-.4-.847-.809-1.689-1.235-2.523v0l-.179-.343.011.02-.024-.046.006.012c-.178-.337-.358-.672-.533-1.01.008.015.015.029.024.044-.1-.2-.2-.4-.287-.6s-.227-.563.014-.735a.413.413,0,0,1,.175-.071.308.308,0,0,1,.245.064.36.36,0,0,1,.127.18.415.415,0,0,1,.011.048c0,.017.01.033.016.049.063.152.134.3.21.44.363.66.735,1.314,1.089,1.978.444.837.852,1.694,1.264,2.547q.635,1.313,1.243,2.635c.4.87.788,1.745,1.178,2.617.54,1.207.679,1.472,1.193,2.51Z"/>
        <path class="cls-1" d="M97.96,154.548l.013.018,0,0Z"/>
        <path class="cls-1" d="M98.65,73.46h0C98.65,73.448,98.651,73.447,98.65,73.46Z"/>
        <path class="cls-1" d="M94.934,73.775l-.011-.033C94.973,73.872,94.928,73.759,94.934,73.775Z"/>
        <path class="cls-1" d="M105.08,144.59c1.642,5.433,2.993,7.7,5.959,12.512a.548.548,0,0,1-.935.57c-.761-1.189-1.741-2.881-2.4-4.12a35.438,35.438,0,0,1-3.475-9.2.508.508,0,0,1,.118-.5C104.764,143.485,104.931,144.1,105.08,144.59Z"/>
        <path class="cls-1" d="M105.4,148.437l0,.006Z"/>
        <path class="cls-1" d="M145.007,87.007l0,.043C145,86.948,145.007,87.007,145.007,87.007Z"/>
        <path class="cls-1" d="M140.249,135.345l0-.008Z"/>
        <path class="cls-1" d="M144.954,116.345l0,.01C144.964,116.273,144.971,116.257,144.954,116.345Z"/>
        <path class="cls-1" d="M71.994,63.738v-.006C72,63.769,72,63.762,71.994,63.738Z"/>
        <path class="cls-1" d="M72,63.732l-.009-.043A.431.431,0,0,1,72,63.732Z"/>
        <path class="cls-1" d="M65.555,26.8l-.005-.016C65.59,26.9,65.587,26.892,65.555,26.8Z"/>
        <path class="cls-1" d="M74.183,53.091l0,.014Z"/>
        <path class="cls-1" d="M71.226,26.676Z"/>
        <path class="cls-1" d="M84.918,39.8h0Z"/>
        <path class="cls-1" d="M86.077,48.114l0-.017C86.088,48.237,86.076,48.106,86.077,48.114Z"/>
        <path class="cls-1" d="M126.47,6.084V6.065l0-.038Z"/>
        <path class="cls-1" d="M123.063,48.522v0Z"/>
        <path class="cls-1" d="M121.76,15.344v.015c0,.014,0,.028,0,.042Z"/>
        <path class="cls-1" d="M131.069,25.578l0-.032v-.019Z"/>
        <path class="cls-1" d="M130.219,23.872a.12.12,0,0,1,0,.019v-.019Z"/>
        <polygon class="cls-1" points="153.135 9.675 153.135 9.676 153.135 9.677 153.135 9.675"/>
        <polygon class="cls-1" points="154.92 65.187 154.92 65.188 154.92 65.194 154.92 65.187"/>
        <polygon class="cls-1" points="153.135 9.677 153.135 9.677 153.132 9.682 153.135 9.677"/>
        <path class="cls-1" d="M154.632,70.139l0,.083v.005Z"/>
        <path class="cls-1" d="M154.392,49.182l0-.044v0Z"/>
        <path class="cls-1" d="M153.528,50.905l0,.035v.021Z"/>
        <path class="cls-1" d="M152.022,74.941h0l0,.027Z"/>
        <path class="cls-1" d="M159.129,63.1l0-.08V63C159.133,63.035,159.13,63.068,159.129,63.1Z"/>
        <polygon class="cls-1" points="160.264 52.538 160.264 52.537 160.264 52.536 160.264 52.538"/>
        <path class="cls-1" d="M159.1,63.622v0Z"/>
        <path class="cls-1" d="M146.292,36.1v0Z"/>
        <path class="cls-1" d="M139.635,36.384l0,0,0,.026,0,0c-.008-.025-.011-.052-.021-.077C139.621,36.347,139.627,36.365,139.635,36.384Z"/>
        <path class="cls-1" d="M140.223,40.84l0-.028c0-.023,0-.046,0-.069Z"/>
        <polygon class="cls-1" points="141.077 38.49 141.077 38.491 141.076 38.501 141.077 38.49"/>
        <path class="cls-1" d="M60.137,57.075l0-.051c0,.018,0,.037,0,.056v-.006Z"/>
        <path class="cls-1" d="M48.055,63.084c.005.015.01.03.016.046C48.012,62.966,48.055,63.084,48.055,63.084Z"/>
        <path class="cls-1" d="M47.149,60.2l0,.017Z"/>
        <path class="cls-1" d="M54.094,62.126l-.01-.045Z"/>
        <path class="cls-1" d="M52.127,58.183l-.012-.057Z"/>
        <path class="cls-1" d="M51.03,57.8l0-.005C51.054,57.912,51.03,57.8,51.03,57.8Z"/>
        <path class="cls-1" d="M76.6,61.539v.008C76.593,61.5,76.6,61.539,76.6,61.539Z"/>
        <path class="cls-1" d="M84.817,61.2l0-.025C84.835,61.28,84.817,61.2,84.817,61.2Z"/>
        <path class="cls-1" d="M84.625,60.3l-.01-.049C84.638,60.36,84.616,60.259,84.625,60.3Z"/>
        <path class="cls-1" d="M112.152,62.627l.006.067C112.156,62.669,112.154,62.65,112.152,62.627Z"/>
        <path class="cls-1" d="M118.029,74.329l0-.027Z"/>
        <path class="cls-1" d="M119.158,61.793v0Z"/>
        <path class="cls-1" d="M143.655,79.716v0Z"/>
        <path class="cls-1" d="M146.487,55.392c.006.356.017.713.025,1.07.019.761.042,1.522.051,2.285.02,1.589.013,3.179-.009,4.768-.011.784-.018,1.568-.025,2.353,0,.769.013,1.539,0,2.308a.419.419,0,1,1-.838.009c-.017-.727.008-1.456.015-2.185q.009-1.125.03-2.249c.025-1.586.041-3.173.017-4.76-.011-.822-.041-1.645-.055-2.467-.008-.374-.007-.748-.008-1.122,0-.181,0-.362.013-.542a.6.6,0,0,1,.093-.337.384.384,0,0,1,.245-.144.365.365,0,0,1,.405.261,1.358,1.358,0,0,1,.03.277C146.48,55.075,146.484,55.233,146.487,55.392Z"/>
        <path class="cls-1" d="M127.032,112.262l0-.029c0-.018,0-.035,0-.052C127.035,112.208,127.034,112.235,127.032,112.262Z"/>
        <path class="cls-1" d="M131.723,64.345l0-.036V64.29Z"/>
        <path class="cls-1" d="M132,67.68l0-.044v-.012Z"/>
        <path class="cls-1" d="M130.281,95.79c0,.015,0,.03,0,.045C130.285,95.7,130.281,95.791,130.281,95.79Z"/>
        <path class="cls-1" d="M131.649,63.41l0-.053v0Z"/>
        <path class="cls-1" d="M132.566,83.894l0-.032,0-.036Z"/>
        <path class="cls-1" d="M133.578,81.115v0C134.856,61.943,134.536,61.922,133.578,81.115Z"/>
        <path class="cls-1" d="M92.825,55.973v-.007C92.826,55.98,92.825,55.977,92.825,55.973Z"/>
        <path class="cls-1" d="M94.381,35.16v0Z"/>
        <path class="cls-1" d="M92.768,28.167h0Z"/>
        <path class="cls-1" d="M93.886,16.516l0,.055Z"/>
        <path class="cls-1" d="M96.047,28.963l0-.03C96.055,29.045,96.047,28.954,96.047,28.963Z"/>
        <path class="cls-1" d="M96.373,50.056l0,.03A.272.272,0,0,1,96.373,50.056Z"/>
        <path class="cls-1" d="M87.472,28.645h0C87.476,28.689,87.474,28.68,87.472,28.645Z"/>
        <path class="cls-1" d="M87.472,28.645a.377.377,0,0,1-.744.11l0-.009c-.021-.083-.051-.314-.061-.4-.064-.5-.353-3.008-.441-3.917a.407.407,0,0,1,.806-.12q.12,1.148.245,2.293C87.323,27.054,87.441,28.192,87.472,28.645Z"/>
        <path class="cls-1" d="M104.848,39.184v0C104.849,39.19,104.849,39.193,104.848,39.184Z"/>
        <path class="cls-1" d="M104.859,39.325v0Z"/>
        <path class="cls-1" d="M104.861,39.344c0-.031,0-.019,0,0Z"/>
        <path class="cls-1" d="M104.305,28.578l0,.043C104.3,28.576,104.308,28.617,104.305,28.578Z"/>
        <path class="cls-1" d="M104.145,10.061c.028.9.048,1.8.074,2.7.122,4.239.8,12.2.863,16.134a.367.367,0,0,1-.718.107c-.068-.235-.136-1.627-.155-1.888-.388-5.616-.546-7.511-.757-10.9q-.168-2.687-.256-5.374c-.03-.9-.051-1.808-.079-2.713-.027-.883-.06-1.768-.068-2.652a.478.478,0,0,1,.4-.472c.021,0,.041,0,.062,0a.479.479,0,0,1,.478.465c.033.648.052,1.3.07,1.944C104.085,8.289,104.116,9.175,104.145,10.061Z"/>
        <path class="cls-1" d="M105.808,13.144c0,.161,0,.321.01.481a.757.757,0,0,1-.044.4.368.368,0,0,1-.571.085.919.919,0,0,1-.169-.563c-.025-.205-.043-.41-.059-.616-.039-.474-.071-.95-.1-1.426-.03-.491-.062-.982-.069-1.476a.463.463,0,0,1,.393-.458.4.4,0,0,1,.06-.005.465.465,0,0,1,.464.453c.041.7.044,1.408.061,2.113Z"/>
        <path class="cls-1" d="M104.972,12.9l0,.029,0,.027Z"/>
        <path class="cls-1" d="M109.54,25.14a.4.4,0,0,1-.788.091,8.08,8.08,0,0,1-.094-.84l0,.056c-.05-.606-.077-1.213-.1-1.821-.029-.629-.062-1.262-.075-1.892-.008-.449-.027-.9-.039-1.342s-.021-.923-.028-1.383c-.017-.946-.037-1.893-.052-2.837a.474.474,0,0,1,.4-.469c.02,0,.04,0,.06,0a.471.471,0,0,1,.472.461c.023,1.537.069,3.073.1,4.609C109.491,25,109.54,25.14,109.54,25.14Z"/>
        <path class="cls-1" d="M19.212,218.923c-.018.021-.027.033,0,0-.278.141-.411.086-.51-.066a.449.449,0,0,1,.136-.54,11.805,11.805,0,0,1,2.993-1.654,61.417,61.417,0,0,1,10.279-3.191c1.126-.223,2.259-.429,3.4-.578a46.711,46.711,0,0,1,6.75-.311c.848.04,1.548.079,2.408.184.473.057,1.044.05,1.328.405a.826.826,0,0,1-.742,1.334c-1.064-.142-.583-.119-2.071-.287-.731-.083-1.465-.139-2.2-.181a41.451,41.451,0,0,0-5.771.057,36.107,36.107,0,0,0-4.649.716C32.443,214.414,22.749,216.543,19.212,218.923Z"/>
        <path class="cls-1" d="M28.128,218.569a10.567,10.567,0,0,1,1.043-.413,43.275,43.275,0,0,1,6.159-1.545.594.594,0,0,1,.159,1.177c-.65.1-1.268.184-1.877.286a36.655,36.655,0,0,0-5.2,1.267l.024-.008A.412.412,0,0,1,28.128,218.569Z"/>
        <path class="cls-1" d="M24,227.188l-.005,0a30.966,30.966,0,0,0,7.373-1.713,37.67,37.67,0,0,0,4.091-1.8,34.287,34.287,0,0,0,7.245-5.246,8.485,8.485,0,0,1,1.793-1.446.888.888,0,0,1,.847,1.409,28.241,28.241,0,0,1-3.319,2.936,37.779,37.779,0,0,1-6.732,3.834,32.918,32.918,0,0,1-7.661,2.356,24.383,24.383,0,0,1-2.853.36,6.22,6.22,0,0,1-.627.021h0A.366.366,0,0,1,24,227.188Z"/>
        <path class="cls-1" d="M39.238,217.581c.709-.356,1.408-.724,1.793.153.593,1.336-2.979,2.217-4.449,2.623-.344.095-1.114.363-1.369.137-.168-.148-.176-.419.122-.661.334-.269,1.611-1.012,1.971-1.22C37.858,218.293,38.4,218,39.238,217.581Z"/>
        <path class="cls-1" d="M87.188,212.291h0C87.158,212.283,87.151,212.279,87.188,212.291Z"/>
        <path class="cls-1" d="M73.65,259.168l-.054.049Z"/>
        <path class="cls-1" d="M132.013,232.379l.009-.007C132,232.4,132.013,232.379,132.013,232.379Z"/>
        <path class="cls-1" d="M76.09,257.245h0l-.019.013Z"/>
        <path class="cls-1" d="M178.069,246.254l0,0C178.089,246.266,178.091,246.268,178.069,246.254Z"/>
        <path class="cls-1" d="M162.9,161.819h0Z"/>
        <path class="cls-1" d="M170.09,147.291l-.007.015Z"/>
        <path class="cls-1" d="M169.454,148.625l.006-.012C169.424,148.688,169.454,148.625,169.454,148.625Z"/>
        <path class="cls-1" d="M151.565,190.039l0,.008C151.577,189.972,151.564,190.041,151.565,190.039Z"/>
        <path class="cls-1" d="M161.671,161.225c-.035.072-.039.079-.039.079C161.646,161.277,161.658,161.251,161.671,161.225Z"/>
        <path class="cls-1" d="M154.5,178.507l-.029.09C154.483,178.567,154.492,178.538,154.5,178.507Z"/>
        <polygon class="cls-1" points="85.64 156.724 85.634 156.721 85.629 156.719 85.64 156.724"/>
        <path class="cls-1" d="M121.6,186.113l.011.031C121.579,186.05,121.6,186.113,121.6,186.113Z"/>
        <path class="cls-1" d="M119.427,178.871l.006.033C119.412,178.807,119.427,178.871,119.427,178.871Z"/>
        <path class="cls-1" d="M120.368,178.206l0,.027C120.35,178.129,120.368,178.206,120.368,178.206Z"/>
        <path class="cls-1" d="M128.73,196.421l.022.042C128.7,196.364,128.749,196.457,128.73,196.421Z"/>
        <path class="cls-1" d="M138.538,210.219c-.128-.153-.587-.7-.682-.863l0,.006c-.014-.025-.028-.053-.014-.027a.385.385,0,0,1,.653-.4l0,0h0l0,0,.006.008c.243.262.256.27.686.8.382.477,1.118,1.1.674,1.462S138.935,210.694,138.538,210.219Z"/>
        <path class="cls-1" d="M138.491,208.927l-.023-.025Z"/>
        <path class="cls-1" d="M202.462,142.368v0Z"/>
        <path class="cls-1" d="M201.677,136.593c-.012-1.248-.064-2.5-.126-3.742-.031-.6-.07-1.209-.1-1.813-.017-.3-.036-.608-.05-.912,0-.13-.012-.262-.017-.393a.78.78,0,0,1,.009-.221.391.391,0,0,1,.707-.106.774.774,0,0,1,.078.321c.016.154.028.309.043.464.027.317.058.634.083.952.006.075.013.15.018.224l0-.057c.092,1.08.152,2.164.2,3.246a73.558,73.558,0,0,1-.028,7.44v0l0,.034v-.015c0,.1-.011.2-.017.294v-.01l0,.047v.016q-.132,2.4-.5,4.774-.282,1.847-.651,3.68a30.2,30.2,0,0,1-.885,3.532c.009-.027.018-.054.028-.082-.021.063-.043.126-.063.189q-.15.451-.309.9c-.383,1.073-.811,2.13-1.261,3.178-.2.468-.412.934-.626,1.4-.12.261-.24.524-.362.785a3.226,3.226,0,0,1-.462.83.759.759,0,0,1-.917.136.773.773,0,0,1-.366-.851,2.089,2.089,0,0,1,.219-.51c.061-.117.123-.234.184-.353.124-.243.245-.486.363-.731l.027-.057.033-.071c2.786-5.931,3.038-7.266,3.833-11.268h0c.006-.034.013-.068.02-.1-.006.024-.01.047-.015.071.011-.054.021-.107.031-.16,0,.022-.009.046-.012.069.019-.1.038-.209.058-.315l0,.009.008-.043,0-.022c.2-1.083.378-2.169.489-3.266s.2-2.2.258-3.3C201.655,139.392,201.689,137.992,201.677,136.593Z"/>
        <path class="cls-1" d="M200.391,154.459c.007-.021.015-.042.022-.064Z"/>
        <path class="cls-1" d="M202.3,131.175l0-.032v-.025Z"/>
        <path class="cls-1" d="M193.354,132.233l0-.011Z"/>
        <path class="cls-1" d="M188.4,142.045h0C188.4,142.023,188.4,142.025,188.4,142.045Z"/>
        <path class="cls-1" d="M194.817,129.364c-.452.877-.912,1.751-1.35,2.636l.015-.034c-.03.063-.033.068-.033.068.057-.11-.184.414-.074.153l-.021.044,0,.007-.012.025-.09.189.009-.017c-.386.822-.761,1.647-1.11,2.485s-.646,1.661-.927,2.507c-.226.689-.424,1.385-.6,2.088-.174.681-.307,1.373-.439,2.064.007-.036.014-.072.02-.106-.014.075-.029.15-.043.225-.128.693-.238,1.39-.346,2.088q-.083.537-.154,1.079a7.048,7.048,0,0,1-.181,1.084.786.786,0,0,1-.845.576.777.777,0,0,1-.673-.655,5.283,5.283,0,0,1,.028-1.021c.028-.316.066-.633.108-.947.08-.614.181-1.224.3-1.832h0c.333-3.4,3.134-9.155,4.879-12.112q.487-.829.972-1.662c.31-.533.641-1.059.909-1.616.015-.032.03-.065.047-.1l-.01.019a.432.432,0,0,1,.321-.251.387.387,0,0,1,.158.009.409.409,0,0,1,.3.444,4.608,4.608,0,0,1-.488,1.253C195.266,128.5,195.04,128.93,194.817,129.364Z"/>
        <path class="cls-1" d="M189.081,150.407c0,.015.006.03.01.045v0Z"/>
        <path class="cls-1" d="M189.091,150.453h0Z"/>
        <path class="cls-1" d="M188.666,150.087a.426.426,0,0,1,.425.376v-.009c.053.2.358,1.6.358,1.6.021.106.162.733.134.629l.04.184,0-.017c.006.026.011.053.017.078.112.507.235,1.009.359,1.512q.35,1.414.715,2.828.188.718.385,1.438c.132.483.264.964.372,1.453a.584.584,0,0,1-.048.43.559.559,0,0,1-1.026-.117c-.221-.706-.374-1.435-.554-2.153-.185-.735-.382-1.468-.567-2.2-.24-.962-.473-1.926-.669-2.9-.1-.477-.187-.954-.259-1.435a6.7,6.7,0,0,1-.1-1.24.429.429,0,0,1,.366-.452A.327.327,0,0,1,188.666,150.087Z"/>
        <path class="cls-1" d="M195.4,158.354l.005-.025v0Z"/>
        <path class="cls-1" d="M195.4,158.324v0l.009-.045Z"/>
        <path class="cls-1" d="M196.628,151.583l0-.006Z"/>
        <path class="cls-1" d="M195.574,157.412l.009-.048,0-.03Z"/>
        <path class="cls-1" d="M193.233,161.435c.355-1.078.8-2.687,1.112-4.04.567-2.516,1.774-7.918,2.256-10.387v0c0-.027.01-.054.016-.081l-.006.026q.162-.879.309-1.76a.39.39,0,0,1,.32-.327.379.379,0,0,1,.433.368,6.877,6.877,0,0,1-.081.972c-.047.364-.106.725-.166,1.085-.121.724-.256,1.446-.392,2.167,0-.02.008-.04.01-.06-.946,5.028.258-1.521-1.493,8.134.018-.1.025-.13-.016.086l-.009.046,0,.011v0l-.009.046.008-.042c-.024.125-.047.25-.071.374v0l0,.023,0-.012-.019.1,0-.012-.009.046,0-.009-.006.031c-.006.034-.013.068-.019.1v.009c-.009.044-.017.089-.025.134-.138.73-.275,1.462-.449,2.184q-.124.517-.254,1.032a11.28,11.28,0,0,1-.321,1.114.746.746,0,0,1-1.372.024.789.789,0,0,1-.04-.487C192.975,162.16,193.171,161.617,193.233,161.435Z"/>
      </g>
    </g>
  </g>
</svg>
